<svg width="15" height="25" viewBox="0 0 15 25" fill="none" xmlns="http://www.w3.org/2000/svg">
<path d="M11.5531 19.1294H3.4469C2.88235 19.1294 2.42491 18.6723 2.42491 18.1086V15.1567C2.42491 13.9283 2.02856 12.6963 1.27839 11.5936C0.442024 10.364 0 8.92751 0 7.43956C0 3.33735 3.36437 0 7.5 0C11.6356 0 15 3.33735 15 7.43956C15 8.92769 14.5578 10.364 13.7216 11.5934C12.9714 12.6961 12.5751 13.9283 12.5751 15.1567V18.1086C12.5751 18.6723 12.1176 19.1294 11.5531 19.1294ZM4.46889 17.0878H10.5311V15.1567C10.5311 13.5176 11.0496 11.8888 12.0309 10.4462C12.6362 9.55645 12.956 8.51678 12.956 7.43956C12.956 4.46311 10.5085 2.04158 7.5 2.04158C4.49145 2.04158 2.04398 4.46311 2.04398 7.43956C2.04398 8.51678 2.36403 9.55645 2.96911 10.4462C3.95038 11.8888 4.46889 13.5176 4.46889 15.1567V17.0878V17.0878Z" fill="white"/>
<path d="M7.71102 24.3765H7.29028C4.61445 24.3765 2.4375 22.2021 2.4375 19.5294V18.1087C2.4375 17.545 2.89494 17.0879 3.45949 17.0879H11.542C12.1066 17.0879 12.564 17.545 12.564 18.1087V19.5294C12.564 22.2019 10.3869 24.3765 7.71102 24.3765ZM4.48128 19.1293V19.5292C4.48128 21.0763 5.74135 22.3349 7.29028 22.3349H7.71102C9.25996 22.3349 10.52 21.0763 10.52 19.5292V19.1293H4.48128Z" fill="white"/>
</svg>
