<svg width="32" height="30" viewBox="0 0 32 30" fill="none" xmlns="http://www.w3.org/2000/svg">
<path d="M20.4801 2.91389L31.2017 20.7715C32.7425 23.3364 31.9857 26.7108 29.5105 28.3076C28.6797 28.8455 27.7114 29.1322 26.7217 29.1332H5.27682C2.36321 29.1332 0 26.6852 0 23.6628C0 22.6404 0.276801 21.6403 0.796802 20.7715L11.52 2.91389C13.0592 0.349086 16.3136 -0.436516 18.7889 1.16029C19.4737 1.60189 20.0529 2.20189 20.4801 2.91389ZM16 22.7331C16.4244 22.7331 16.8314 22.5646 17.1314 22.2645C17.4315 21.9645 17.6 21.5575 17.6 21.1331C17.6 20.7088 17.4315 20.3018 17.1314 20.0018C16.8314 19.7017 16.4244 19.5331 16 19.5331C15.5757 19.5331 15.1687 19.7017 14.8687 20.0018C14.5686 20.3018 14.4 20.7088 14.4 21.1331C14.4 21.5575 14.5686 21.9645 14.8687 22.2645C15.1687 22.5646 15.5757 22.7331 16 22.7331ZM16 8.33311C15.5757 8.33311 15.1687 8.50168 14.8687 8.80174C14.5686 9.1018 14.4 9.50877 14.4 9.93311V16.3331C14.4 16.7575 14.5686 17.1644 14.8687 17.4645C15.1687 17.7646 15.5757 17.9331 16 17.9331C16.4244 17.9331 16.8314 17.7646 17.1314 17.4645C17.4315 17.1644 17.6 16.7575 17.6 16.3331V9.93311C17.6 9.50877 17.4315 9.1018 17.1314 8.80174C16.8314 8.50168 16.4244 8.33311 16 8.33311Z" fill="#FFD600"/>
</svg>
