<svg width="32" height="32" viewBox="0 0 32 32" fill="none" xmlns="http://www.w3.org/2000/svg">
<path d="M32 16C32 20.2435 30.3143 24.3131 27.3137 27.3137C24.3131 30.3143 20.2435 32 16 32C11.7565 32 7.68687 30.3143 4.68629 27.3137C1.68571 24.3131 0 20.2435 0 16C0 11.7565 1.68571 7.68687 4.68629 4.68629C7.68687 1.68571 11.7565 0 16 0C20.2435 0 24.3131 1.68571 27.3137 4.68629C30.3143 7.68687 32 11.7565 32 16ZM12 14C12 14 11.0626 13.9374 10.5 14.5C9.93739 15.0626 10 16 10 16C10 16 9.93739 16.9374 10.5 17.5C11.0626 18.0626 12 18 12 18H20C20 18 21 18 21.5 17.5C22 17 22 16 22 16C22 16 22.0626 15.0626 21.5 14.5C20.9374 13.9374 20 14 20 14H12Z" fill="#F26232"/>
</svg>
