<svg width="30" height="31" viewBox="0 0 30 31" fill="none" xmlns="http://www.w3.org/2000/svg">
<path fill-rule="evenodd" clip-rule="evenodd" d="M30 15.5C30 19.4782 28.4196 23.2936 25.6066 26.1066C22.7936 28.9196 18.9782 30.5 15 30.5C11.0218 30.5 7.20644 28.9196 4.3934 26.1066C1.58035 23.2936 0 19.4782 0 15.5C0 11.5218 1.58035 7.70644 4.3934 4.8934C7.20644 2.08035 11.0218 0.5 15 0.5C18.9782 0.5 22.7936 2.08035 25.6066 4.8934C28.4196 7.70644 30 11.5218 30 15.5V15.5ZM16.875 8C16.875 8.49728 16.6775 8.97419 16.3258 9.32583C15.9742 9.67746 15.4973 9.875 15 9.875C14.5027 9.875 14.0258 9.67746 13.6742 9.32583C13.3225 8.97419 13.125 8.49728 13.125 8C13.125 7.50272 13.3225 7.02581 13.6742 6.67418C14.0258 6.32254 14.5027 6.125 15 6.125C15.4973 6.125 15.9742 6.32254 16.3258 6.67418C16.6775 7.02581 16.875 7.50272 16.875 8ZM13.125 13.625C12.6277 13.625 12.1508 13.8225 11.7992 14.1742C11.4475 14.5258 11.25 15.0027 11.25 15.5C11.25 15.9973 11.4475 16.4742 11.7992 16.8258C12.1508 17.1775 12.6277 17.375 13.125 17.375V23C13.125 23.4973 13.3225 23.9742 13.6742 24.3258C14.0258 24.6775 14.5027 24.875 15 24.875H16.875C17.3723 24.875 17.8492 24.6775 18.2008 24.3258C18.5525 23.9742 18.75 23.4973 18.75 23C18.75 22.5027 18.5525 22.0258 18.2008 21.6742C17.8492 21.3225 17.3723 21.125 16.875 21.125V15.5C16.875 15.0027 16.6775 14.5258 16.3258 14.1742C15.9742 13.8225 15.4973 13.625 15 13.625H13.125Z" fill="#1C75BC"/>
</svg>
