<svg width="20" height="20" viewBox="0 0 20 20" fill="none" xmlns="http://www.w3.org/2000/svg">
<path d="M5.2901 19.2C5.14576 19.2 5.00044 19.1717 4.86238 19.1135C4.45843 18.9427 4.19607 18.5483 4.19607 18.1117V14.1822C1.86149 14.0587 0 12.1303 0 9.77758V4.41084C0 1.9788 1.98894 0 4.43388 0H15.5661C18.0109 0 20 1.9788 20 4.41084V9.77758C20 12.2096 18.0111 14.1884 15.5661 14.1884H10.9555L6.0499 18.8951C5.84194 19.0945 5.56818 19.2 5.2901 19.2ZM4.43388 2.1769C3.1957 2.1769 2.18846 3.1791 2.18846 4.41084V9.77758C2.18846 11.0093 3.1957 12.0113 4.43388 12.0113H5.2903C5.89456 12.0113 6.38453 12.4988 6.38453 13.0999V15.5495L9.75423 12.3163C9.95827 12.1207 10.2305 12.0113 10.5138 12.0113H15.5661C16.8043 12.0113 17.8115 11.0093 17.8115 9.77758V4.41084C17.8115 3.1791 16.8043 2.1769 15.5661 2.1769H4.43388Z" fill="white"/>
<path d="M5.89208 8.41667C6.63447 8.41667 7.2363 7.81797 7.2363 7.07943C7.2363 6.34089 6.63447 5.74219 5.89208 5.74219C5.14968 5.74219 4.54785 6.34089 4.54785 7.07943C4.54785 7.81797 5.14968 8.41667 5.89208 8.41667Z" fill="white"/>
<path d="M9.99974 8.41667C10.7421 8.41667 11.344 7.81797 11.344 7.07943C11.344 6.34089 10.7421 5.74219 9.99974 5.74219C9.25735 5.74219 8.65552 6.34089 8.65552 7.07943C8.65552 7.81797 9.25735 8.41667 9.99974 8.41667Z" fill="white"/>
<path d="M14.1091 8.41667C14.8515 8.41667 15.4533 7.81797 15.4533 7.07943C15.4533 6.34089 14.8515 5.74219 14.1091 5.74219C13.3667 5.74219 12.7649 6.34089 12.7649 7.07943C12.7649 7.81797 13.3667 8.41667 14.1091 8.41667Z" fill="white"/>
</svg>
