<svg width="13" height="27" viewBox="0 0 13 27" fill="none" xmlns="http://www.w3.org/2000/svg">
<path d="M0.43457 2.29834L10.5174 5.51235L0.642505 8.80338L0.43457 2.29834Z" fill="#250B62" fill-opacity="0.7"/>
<path d="M2.01855 26.2043C1.56639 26.2197 1.19153 25.9749 1.18138 25.6576L0.416805 1.73856C0.406662 1.42124 0.764929 1.15143 1.21723 1.13599C1.66954 1.12056 2.04425 1.36535 2.0544 1.68267L2.81898 25.6017C2.82912 25.919 2.47085 26.1889 2.01855 26.2043Z" fill="white"/>
<path d="M1.48143 9.40364C1.32287 9.40905 1.16386 9.38206 1.02561 9.32329C0.793561 9.22466 0.650424 9.0496 0.644269 8.85706L0.436334 2.35202C0.429946 2.15216 0.571993 1.96169 0.811117 1.84895C1.05054 1.73619 1.35283 1.71741 1.6095 1.79909L11.6923 5.0131C11.9798 5.10467 12.1608 5.30652 12.1568 5.53048C12.1527 5.75445 11.9638 5.95962 11.673 6.05658L1.79814 9.34771C1.69697 9.38131 1.58929 9.39996 1.48143 9.40364ZM2.10386 3.23242L2.25418 7.93511L9.39303 5.55584L2.10386 3.23242Z" fill="white"/>
</svg>
