<svg width="48" height="48" viewBox="0 0 48 48" fill="none" xmlns="http://www.w3.org/2000/svg">
<path fill-rule="evenodd" clip-rule="evenodd" d="M25 4V16L25 16.0544V16.0545C24.9999 16.4785 24.9998 16.8906 25.0455 17.2305C25.097 17.6137 25.2226 18.051 25.5858 18.4142C25.949 18.7774 26.3863 18.903 26.7695 18.9545C27.1094 19.0002 27.5215 19.0001 27.9456 19L28 19H40V32C40 37.6569 40 40.4853 38.2426 42.2426C36.4853 44 33.6569 44 28 44H20C14.3431 44 11.5147 44 9.75736 42.2426C8 40.4853 8 37.6569 8 32V16C8 10.3431 8 7.51472 9.75736 5.75736C11.5147 4 14.3431 4 20 4H25ZM27 4.00009V16C27 16.4997 27.0021 16.7738 27.0277 16.964L27.0287 16.9713L27.036 16.9723C27.2262 16.9979 27.5003 17 28 17H39.9999C39.9987 15.571 39.9799 14.8126 39.6955 14.1261C39.391 13.391 38.813 12.813 37.6569 11.6569L32.3431 6.34315C31.187 5.18702 30.609 4.60896 29.8739 4.30448C29.1874 4.02013 28.429 4.00133 27 4.00009ZM17 26C17 25.4477 17.4477 25 18 25H30C30.5523 25 31 25.4477 31 26C31 26.5523 30.5523 27 30 27H18C17.4477 27 17 26.5523 17 26ZM18 33C17.4477 33 17 33.4477 17 34C17 34.5523 17.4477 35 18 35H26C26.5523 35 27 34.5523 27 34C27 33.4477 26.5523 33 26 33H18Z" fill="#08B7EE"/>
</svg>
