<svg width="25" height="25" viewBox="0 0 25 25" fill="none" xmlns="http://www.w3.org/2000/svg">
<path d="M4.86106 4.16672H15.9722V10.9723H17.3611V4.16672C17.3611 3.79836 17.2147 3.4451 16.9543 3.18463C16.6938 2.92416 16.3405 2.77783 15.9722 2.77783H4.86106C4.4927 2.77783 4.13943 2.92416 3.87896 3.18463C3.6185 3.4451 3.47217 3.79836 3.47217 4.16672V20.8334C3.47217 21.2017 3.6185 21.555 3.87896 21.8155C4.13943 22.0759 4.4927 22.2223 4.86106 22.2223H15.9722C16.3405 22.2223 16.6938 22.0759 16.9543 21.8155C17.2147 21.555 17.3611 21.2017 17.3611 20.8334H4.86106V4.16672Z" fill="white"/>
<path d="M19.5555 12C19.4227 11.8862 19.2518 11.8268 19.077 11.8335C18.9022 11.8403 18.7364 11.9127 18.6127 12.0364C18.4891 12.1601 18.4166 12.3259 18.4099 12.5006C18.4031 12.6754 18.4626 12.8463 18.5763 12.9792L20.9236 15.2778H10.8541C10.6699 15.2778 10.4933 15.3509 10.3631 15.4812C10.2328 15.6114 10.1597 15.788 10.1597 15.9722C10.1597 16.1564 10.2328 16.333 10.3631 16.4633C10.4933 16.5935 10.6699 16.6667 10.8541 16.6667H20.9236L18.5763 19.0694C18.5036 19.1317 18.4446 19.2083 18.4029 19.2945C18.3612 19.3806 18.3378 19.4745 18.3341 19.5701C18.3304 19.6657 18.3465 19.7611 18.3814 19.8502C18.4164 19.9393 18.4693 20.0203 18.537 20.0879C18.6047 20.1556 18.6856 20.2086 18.7747 20.2435C18.8638 20.2784 18.9592 20.2945 19.0548 20.2908C19.1505 20.2871 19.2443 20.2637 19.3305 20.222C19.4166 20.1803 19.4932 20.1213 19.5555 20.0486L23.6111 16.0208L19.5555 12Z" fill="white"/>
</svg>
