<svg width="31" height="21" viewBox="0 0 31 21" fill="none" xmlns="http://www.w3.org/2000/svg">
<path d="M6.26637 20.1644C5.62473 20.1644 4.9831 20.0637 4.35881 19.8793C1.06392 18.8563 -0.756933 15.4354 0.300898 12.2492C1.35873 9.06301 4.89639 7.30222 8.19127 8.32515C9.78669 8.82823 11.0873 9.88471 11.8503 11.3269C11.9544 11.5281 11.8677 11.7797 11.6596 11.897C11.4515 11.9977 11.1913 11.9138 11.07 11.7126C10.411 10.4716 9.28379 9.54932 7.91381 9.13008C5.06981 8.2413 2.0177 9.76732 1.11594 12.5007C0.214186 15.2509 1.77492 18.2023 4.60158 19.0743C7.44559 19.9631 10.4977 18.4371 11.3994 15.7037C11.4688 15.4857 11.7116 15.3683 11.937 15.4354C12.1625 15.5025 12.2839 15.7372 12.2145 15.9552C11.3994 18.5209 8.91961 20.1644 6.26637 20.1644Z" fill="white"/>
<path d="M24.5794 20.3002C21.4059 20.3002 18.6486 18.0195 18.2151 14.9172C17.9896 13.2738 18.4405 11.6472 19.4636 10.3392C19.6024 10.1547 19.8798 10.1212 20.0706 10.2553C20.2613 10.3895 20.296 10.6578 20.1573 10.8422C19.2555 11.9826 18.874 13.3912 19.0821 14.7998C19.481 17.7345 22.2903 19.8139 25.3251 19.4114C26.7991 19.2269 28.0997 18.4891 29.0015 17.3488C29.9032 16.2084 30.2847 14.7998 30.094 13.3744C29.6951 10.4398 26.8858 8.36036 23.851 8.76283C23.6083 8.7796 23.4002 8.62867 23.3655 8.41067C23.3308 8.1759 23.5042 7.97467 23.7296 7.94113C27.25 7.50512 30.4755 9.88638 30.9437 13.2738C31.1691 14.9172 30.7183 16.5606 29.6778 17.8686C28.6373 19.1934 27.1286 20.0319 25.4291 20.2499C25.1517 20.2834 24.8568 20.3002 24.5794 20.3002Z" fill="white"/>
<path d="M5.83251 15.0331C5.67643 15.0331 5.5377 14.9493 5.45099 14.8151C5.3296 14.6139 5.41631 14.3623 5.62441 14.2449L22.2375 5.47455C22.4456 5.35716 22.7058 5.44102 22.8272 5.64225C22.9486 5.84348 22.8618 6.09502 22.6537 6.2124L6.0406 14.9828C5.97124 15.0163 5.90187 15.0331 5.83251 15.0331Z" fill="white"/>
<path d="M22.1338 1.50086C22.1164 1.46732 22.0818 1.45055 22.0644 1.41701C22.0644 1.38347 22.0991 1.36671 22.0991 1.33317C22.0991 1.09839 21.9083 0.913931 21.6656 0.913931H19.4458L18.6481 0.125771C18.4747 -0.0419235 18.2146 -0.0419235 18.0412 0.125771C17.8678 0.293465 17.8678 0.545003 18.0412 0.712697L19.099 1.7524H21.3187L24.4402 14.7152C24.4922 14.9164 24.6656 15.0338 24.8564 15.0338C24.8911 15.0338 24.9258 15.0338 24.9604 15.017C25.1859 14.9667 25.342 14.7319 25.2899 14.5139L22.1338 1.50086Z" fill="white"/>
<path d="M15.6654 9.24871L11.0872 5.72714H11.3647C11.6074 5.72714 11.7982 5.54268 11.7982 5.30791C11.7982 5.07314 11.6074 4.88867 11.3647 4.88867H7.46283C7.22005 4.88867 7.0293 5.07314 7.0293 5.30791C7.0293 5.54268 7.22005 5.72714 7.46283 5.72714H9.71723L15.1451 9.91949C15.2318 9.98657 15.3185 10.0033 15.4226 10.0033C15.544 10.0033 15.6827 9.95303 15.7694 9.85241C15.8908 9.65118 15.8561 9.38287 15.6654 9.24871Z" fill="white"/>
</svg>
