<svg width="200" height="200" viewBox="0 0 200 200" fill="none" xmlns="http://www.w3.org/2000/svg">
<path d="M176.162 123.837C189.327 81.7746 165.901 37.0031 123.838 23.8375C81.7755 10.6719 37.004 34.0978 23.8384 76.1607C10.6728 118.224 34.0987 162.995 76.1616 176.161C118.224 189.326 162.996 165.9 176.162 123.837Z" fill="url(#paint0_radial_741_139)"/>
<path d="M100.055 169.661C138.523 169.661 169.707 138.476 169.707 100.008C169.707 61.54 138.523 30.3555 100.055 30.3555C61.5869 30.3555 30.4023 61.54 30.4023 100.008C30.4023 138.476 61.5869 169.661 100.055 169.661Z" fill="url(#paint1_radial_741_139)"/>
<path d="M142.634 106.5C142.049 107.946 141.649 108.715 143.833 109.054C146.468 108.879 148.96 107.791 150.879 105.977C153.424 103.913 155.791 101.639 157.955 99.1779L168.569 87.8563C168.569 88.3485 168.723 88.8715 168.784 89.3945L159.339 100.347C157.193 102.985 154.814 105.425 152.232 107.638C150.988 108.666 149.649 109.572 148.233 110.346C146.847 111.157 145.253 111.542 143.649 111.453C142.805 111.485 141.973 111.253 141.267 110.79C140.561 110.327 140.017 109.656 139.711 108.869C139.441 107.692 139.605 106.458 140.172 105.392C140.788 103.946 141.188 103.177 141.188 103.177C142.559 100.611 144.154 98.1707 145.956 95.886C149.033 91.7327 153.617 86.6564 157.555 81.1494C159.801 78.0729 161.893 74.9964 163.708 71.9198L164.446 73.6119C162.846 76.4116 161.031 79.3343 159.093 82.1954C155.309 87.9178 150.848 93.2094 147.925 97.2704C146.277 99.5049 144.816 101.872 143.557 104.346C143.557 104.346 143.187 105.116 142.634 106.5ZM39.17 71.3968C45.0732 69.7377 51.1914 68.9704 57.3216 69.1202C60.6442 69.1202 64.0284 69.5817 67.3203 69.4278C70.407 69.3857 73.4372 68.5939 76.1499 67.1205C77.9509 66.0083 79.6135 64.6864 81.1031 63.1825L82.7951 61.5212C84.77 59.4361 86.6095 57.2267 88.3022 54.9066C92.0772 49.8311 95.1795 44.2883 97.5318 38.4165C98.5691 35.7997 99.4323 33.1173 100.116 30.3867H98.5161C97.7463 32.8503 96.853 35.2736 95.8396 37.6473C93.4101 43.232 90.3108 48.5008 86.61 53.3376C84.9374 55.5197 83.1072 57.5763 81.1339 59.4907L79.5648 61.152C78.1807 62.5994 76.6319 63.8797 74.95 64.9669C72.6061 66.3234 69.9651 67.084 67.2587 67.182C64.1822 67.4281 60.8287 67.182 57.4138 67.182C51.1338 67.1904 44.8978 68.2297 38.9546 70.2585C38.1239 70.5354 37.4472 70.8431 36.7396 71.1199C36.7396 71.4891 36.3703 71.8275 36.2164 72.1967L39.17 71.3968ZM81.503 151.171L83.0721 149.818C83.6212 149.224 84.0588 148.536 84.3642 147.787C84.5896 147.239 84.6684 146.641 84.5929 146.053C84.5174 145.465 84.2901 144.907 83.9334 144.434C83.11 143.538 82.0393 142.906 80.8569 142.618C75.6484 141.245 70.1461 141.481 65.0743 143.295C59.6288 144.987 54.5834 147.264 50.5532 148.279H50.0302C50.3071 148.587 50.5531 148.895 50.8299 149.171C55.014 148.433 60.3058 146.403 65.5974 145.018C70.3086 143.57 75.3458 143.57 80.057 145.018C80.7468 145.176 81.3769 145.528 81.8722 146.033C82.0568 146.31 81.8722 146.495 81.8722 146.864C81.6494 147.273 81.3811 147.654 81.0723 148.002L79.7494 149.202C78.5845 150.291 77.2811 151.222 75.8729 151.971C71.4041 154.252 66.6097 155.83 61.6594 156.647L59.9673 156.986L62.1823 158.493C67.3354 157.85 72.3521 156.385 77.042 154.155C78.6612 153.374 80.1629 152.37 81.503 151.171V151.171ZM65.0437 40.4162C64.3053 41.8006 64.1821 42.8467 64.3359 42.9082C64.4898 42.9697 66.428 39.401 69.966 38.0165C71.4736 37.344 73.1159 37.0282 74.7654 37.0935H75.5345C75.5345 37.0935 75.5345 37.0936 75.2576 37.4627C74.2186 38.7183 73.0423 39.8534 71.7505 40.8469C69.0124 43.062 65.5974 44.1696 65.5974 44.508C68.1211 44.5327 70.5914 43.7809 72.6734 42.3544C74.2376 41.4624 75.6757 40.3657 76.9498 39.0933C77.3177 38.732 77.6667 38.352 77.9957 37.955L78.9495 36.7551C79.5032 36.0168 79.9033 35.5553 79.9956 35.4015L78.5187 34.9707C78.5187 34.9707 78.0573 34.9707 77.2574 34.7246C76.7919 34.6029 76.3192 34.5104 75.8421 34.4477C72.3442 35.8444 68.9601 37.5107 65.7204 39.4317C65.4743 39.8009 65.2283 40.1701 65.0437 40.5085V40.4162ZM163.708 128.036C158.743 129.751 153.568 130.786 148.325 131.112C142.521 131.504 136.77 132.473 131.158 134.004C128.587 134.748 126.085 135.716 123.682 136.896C121.275 138.06 118.979 139.44 116.821 141.019C112.065 144.41 107.907 148.569 104.515 153.325C100.793 158.432 97.5625 163.754 94.3937 167.169C93.7168 167.908 93.0708 168.554 92.4555 169.138H93.5938C94.086 168.707 94.5782 168.307 95.132 167.784C99.0581 163.562 102.696 159.08 106.023 154.371C109.484 149.937 113.64 146.093 118.329 142.988C122.597 140.193 127.196 137.94 132.02 136.281C137.495 134.695 143.11 133.634 148.787 133.112C153.641 132.543 158.411 131.408 163 129.728C163.216 129.174 163.462 128.682 163.708 128.036ZM114.699 155.724C114.13 156.047 113.637 156.488 113.253 157.017C112.119 158.316 111.242 159.82 110.668 161.447C110.515 162.124 109.253 164.523 111.376 164.893C112.825 165.029 114.274 164.647 115.468 163.816L122.667 160.093L136.111 153.079C137.644 152.309 139.133 151.457 140.572 150.525C141.144 150.176 141.689 149.786 142.203 149.356C142.61 149.027 142.99 148.667 143.341 148.279C144.42 147.212 145.268 145.934 145.833 144.526C146.075 144.003 146.183 143.428 146.145 142.852C146.107 142.277 145.926 141.721 145.618 141.234C145.333 140.91 144.983 140.649 144.591 140.469C144.199 140.289 143.773 140.193 143.341 140.188C142.576 140.206 141.819 140.341 141.095 140.588C139.457 141.067 137.844 141.632 136.265 142.28C132.387 143.893 128.769 146.07 125.528 148.741C122.601 151.114 120.013 153.878 117.837 156.955C116.818 158.241 116.018 159.686 115.468 161.231C118.664 157.05 122.375 153.287 126.513 150.033C129.746 147.658 133.298 145.752 137.065 144.372C139.097 143.435 141.291 142.902 143.526 142.803C143.71 142.803 143.218 144.28 142.726 144.864C142.362 145.421 141.939 145.937 141.465 146.403C141.17 146.726 140.84 147.015 140.48 147.264C138.766 148.664 136.91 149.881 134.942 150.894L121.744 158.801L114.729 162.862C114.233 163.195 113.708 163.483 113.16 163.723C112.77 163.924 112.338 164.03 111.899 164.031C111.038 164.031 111.468 163.17 111.684 162.124C112.393 159.94 113.408 157.869 114.699 155.971V155.724ZM75.2576 160.093C83.8881 156.217 91.3702 150.177 96.9779 142.557C98.158 141.029 98.9405 139.232 99.2546 137.327C99.447 135.726 99.1122 134.106 98.3009 132.712C97.7922 131.855 97.1479 131.086 96.3933 130.435C96.1345 130.198 95.8568 129.982 95.5628 129.789L94.6705 129.236C93.8157 128.782 92.9058 128.44 91.9633 128.22C88.7661 127.653 85.4809 127.832 82.3644 128.743C73.417 131.104 64.6138 133.98 55.9987 137.358C51.9377 138.834 47.8459 140.065 43.6926 141.08L44.7385 142.434C48.5841 141.542 52.5529 140.465 56.46 139.173C65.0762 136.03 73.8573 133.36 82.7643 131.174C85.5056 130.391 88.3911 130.254 91.1942 130.774C92.1637 130.989 93.0762 131.409 93.8707 132.004C94.687 132.515 95.3719 133.211 95.8704 134.035C96.4584 135.183 96.6708 136.487 96.4776 137.762C96.2844 139.037 95.6953 140.219 94.7936 141.142C89.5351 148.529 82.4841 154.458 74.3039 158.37C71.8497 159.555 69.2968 160.522 66.6741 161.262C67.4125 161.662 68.2124 161.97 68.9815 162.37C71.1306 161.778 73.2292 161.017 75.2576 160.093V160.093ZM47.5688 55.4912C47.4628 55.222 47.3806 54.944 47.3228 54.6605C48.1535 53.7068 49.0148 52.7838 49.8762 51.8609C49.8762 52.4454 49.8762 52.7838 49.8762 52.7838C49.8298 53.2938 49.8928 53.8077 50.0608 54.2913C50.2454 54.599 50.3686 54.7836 51.1993 54.9989C52.2134 55.2278 53.241 55.3922 54.2758 55.4912C60.0176 56.0515 65.7951 54.8724 70.8582 52.107C75.9379 49.2684 80.0605 44.9854 82.7029 39.8009C83.8068 37.369 84.7623 34.8724 85.5641 32.3249C85.5641 32.3249 85.5641 32.3249 85.5641 32.3249C85.5797 32.223 85.5797 32.1192 85.5641 32.0173C85.5641 32.0173 85.5641 32.0173 85.5641 32.0173H86.1178C86.1178 32.0173 86.1178 32.0173 86.1178 32.2019C86.1414 32.5326 86.0961 32.8647 85.9849 33.1771C85.8737 33.4895 85.6989 33.7755 85.4717 34.017C85.4717 34.2324 85.4717 34.417 85.4717 34.6939C85.1178 36.6509 84.5397 38.5607 83.7488 40.3854C81.2787 46.0128 77.1314 50.7404 71.8735 53.9222C66.5231 57.0729 60.3486 58.5414 54.1526 58.137C52.9971 58.0408 51.8471 57.8868 50.7069 57.6755C50.0349 57.5903 49.3943 57.3409 48.8416 56.9491C48.2889 56.5574 47.8412 56.0356 47.5382 55.4297L47.5688 55.4912ZM101.439 44.2003C100.116 45.7386 98.8546 47.2769 97.6548 49.0305C96.3009 50.7458 95.5253 52.8461 95.4396 55.0297C95.6915 56.9786 96.507 58.8115 97.7859 60.3035C99.0647 61.7955 100.751 62.8817 102.639 63.4286C105.167 64.2554 107.854 64.4767 110.484 64.0747C111.475 63.9272 112.452 63.7008 113.407 63.3979C116.748 62.2097 119.814 60.3573 122.421 57.9524C127.937 52.917 132.851 47.2595 137.065 41.093L135.404 40.1085C131.154 45.949 126.262 51.2945 120.821 56.045C118.43 58.1855 115.623 59.809 112.576 60.8136C111.763 61.0933 110.93 61.3093 110.084 61.4597C107.869 61.8385 105.598 61.7123 103.439 61.0905C101.98 60.7266 100.656 59.9545 99.6204 58.8647C98.5851 57.7749 97.8819 56.4126 97.5932 54.9374C97.5932 51.8609 100.67 48.5382 102.823 45.4002C106.593 41.0166 110.086 36.4032 113.284 31.5866L111.868 31.3712C109.13 35.5553 105.254 39.8624 101.439 44.2926V44.2003ZM114.237 43.6158L118.021 37.955L121.098 33.5863L119.467 33.1556L116.637 36.8782L112.514 42.4467C111.788 43.33 111.158 44.2893 110.638 45.3079C110.326 45.9538 110.218 46.6792 110.328 47.388C110.438 48.0968 110.76 48.7554 111.253 49.2766C111.995 49.9423 112.932 50.35 113.925 50.4387C114.917 50.5275 115.912 50.2925 116.76 49.7689C117.336 49.4439 117.855 49.0284 118.298 48.5382C118.706 48.1118 119.087 47.6596 119.437 47.1846L121.929 43.6773C123.467 41.493 125.344 38.7549 127.251 35.8322C126.574 35.5553 125.897 35.3707 125.221 35.0938C123.282 37.7396 121.436 40.2316 119.929 42.2006L117.345 45.554C116.729 46.3231 116.391 46.6616 116.391 46.6616C116.391 46.6616 114.822 48.7536 113.007 47.4922C112.73 47.2461 112.576 46.9077 112.853 46.2001C113.227 45.3237 113.691 44.4885 114.237 43.7081V43.6158ZM149.74 77.273C144.203 86.1949 136.634 93.4248 131.497 99.6086C129.377 102.077 127.473 104.722 125.805 107.515C125.155 108.621 124.609 109.785 124.174 110.992C123.7 112.217 123.39 113.5 123.252 114.807C123.004 116.578 123.152 118.382 123.683 120.089C124.215 121.796 125.119 123.365 126.328 124.682C128.066 126.427 130.419 127.421 132.881 127.451C135.444 127.438 137.969 126.838 140.265 125.698C144.888 123.246 149.276 120.373 153.371 117.114C159.043 112.859 164.429 108.234 169.492 103.27C169.492 102.654 169.492 102.039 169.492 101.424C163.997 106.486 158.203 111.211 152.14 115.576C148.077 118.644 143.753 121.351 139.219 123.667C137.231 124.616 135.053 125.1 132.85 125.082C131.015 125.038 129.269 124.276 127.989 122.959C127.069 121.893 126.391 120.639 126.003 119.284C125.616 117.929 125.527 116.507 125.744 115.114C125.893 114.059 126.172 113.025 126.574 112.038C126.959 110.974 127.432 109.945 127.989 108.961C129.578 106.223 131.389 103.619 133.404 101.178C138.265 95.0246 145.926 87.5178 151.371 78.319C154.348 73.4232 156.891 68.276 158.97 62.9364C158.632 62.4134 158.355 61.8904 158.016 61.3674C155.752 66.9123 152.982 72.2367 149.74 77.273ZM48.9225 98.8087C49.7847 97.8313 50.4623 96.7055 50.9223 95.486C51.1089 95.0098 51.243 94.5146 51.3223 94.0093C51.4158 93.4595 51.4158 92.8978 51.3223 92.348C51.2555 91.6798 51.0568 91.0314 50.7377 90.4405C50.4977 89.9878 50.1562 89.5966 49.7399 89.2978C49.3236 88.9989 48.8437 88.8003 48.338 88.7177C47.3704 88.6232 46.395 88.7822 45.5076 89.1792L43.0772 90.1021C41.3248 90.8024 39.6098 91.5931 37.9393 92.4711C35.3437 93.7708 32.8543 95.2727 30.4941 96.9628C30.4941 97.455 30.4941 97.9473 30.4941 98.4395C33.1677 96.8451 35.9425 95.4268 38.8008 94.1939C40.5237 93.4555 42.2772 92.7787 43.9078 92.1942C45.2014 91.644 46.5704 91.2914 47.9688 91.1481C48.4303 91.1481 48.738 92.0403 48.7687 92.6249C48.8142 92.9412 48.8142 93.2623 48.7687 93.5786C48.5871 94.9266 48.0089 96.1903 47.1075 97.2089C44.8195 99.6365 42.109 101.628 39.1084 103.085C36.2472 104.746 33.2938 106.162 30.8941 107.361C30.8941 107.761 30.8941 108.161 31.0787 108.531C34.119 107.443 37.0975 106.19 40.0007 104.777C43.3207 103.416 46.3492 101.432 48.9225 98.9318V98.8087ZM37.4471 84.9643C43.6002 82.9338 49.9685 81.1187 54.7064 79.8265C57.1984 79.0266 58.3674 79.3035 59.1058 80.0727C59.5174 80.4557 59.8336 80.9299 60.0289 81.4571C60.2881 81.9961 60.4345 82.5823 60.4595 83.1799C60.4442 84.9382 59.9555 86.66 59.0444 88.1639C56.2861 93.495 53.1071 98.5977 49.5379 103.423C45.982 108.187 41.4643 112.149 36.278 115.053C35.0392 115.697 33.7656 116.272 32.4632 116.776L32.6477 117.452C34.0535 117.085 35.4231 116.591 36.7396 115.976C42.2909 113.313 47.1701 109.433 51.0145 104.623C54.8348 99.8819 58.2515 94.8291 61.2286 89.5176C62.3887 87.6692 63.0365 85.5457 63.1054 83.3645C63.0909 82.4423 62.8921 81.5323 62.5209 80.6879C62.1721 79.807 61.612 79.0252 60.8902 78.4113C60.035 77.6489 58.9554 77.1847 57.8137 77.0884C56.534 77.0771 55.2627 77.2959 54.0604 77.7345C49.3226 79.1497 43.0464 81.1802 36.8626 83.4568L32.094 85.2412C32.094 85.8873 31.8171 86.5334 31.694 87.1794C33.5707 86.2565 35.4781 85.6104 37.4471 84.9643ZM73.2272 122.313C82.026 120.929 91.071 121.575 97.8394 119.729C100.609 119.027 103.247 117.885 105.654 116.345C107.377 115.207 108.269 114.468 108.269 114.468C111.186 111.984 113.846 109.211 116.206 106.192C120.483 100.962 126.02 93.8863 131.281 86.5334C136.542 79.1805 141.495 71.7045 145.064 65.9822C146.818 63.0902 148.141 60.6905 149.248 58.9677C149.819 58.1035 150.284 57.1739 150.633 56.1988C149.942 56.9708 149.324 57.805 148.787 58.6908L144.172 65.3976C140.357 70.9354 135.188 78.2575 129.743 85.395C124.297 92.5326 118.637 99.4855 114.36 104.593C112.05 107.427 109.463 110.024 106.638 112.345C105.884 112.986 105.093 113.582 104.269 114.13C102.118 115.537 99.7473 116.577 97.2548 117.206C91.1018 119.083 81.8723 118.683 72.9196 120.283C64.735 121.646 56.7277 123.916 49.0457 127.051C45.9692 128.313 43.354 129.543 41.6004 130.435C40.65 130.865 39.752 131.402 38.9238 132.035C39.9861 131.792 41.018 131.43 42.0003 130.958C43.8155 130.22 46.3998 129.143 49.5686 127.882C57.2535 125.262 65.178 123.407 73.2272 122.344V122.313ZM44.7385 121.883C52.7033 117.89 59.5771 112.019 64.7667 104.777C67.5971 100.808 69.9352 96.6243 72.3656 92.9325C74.4738 89.5208 77.0413 86.4152 79.9956 83.7029C82.1061 81.8966 84.4309 80.357 86.9177 79.1189C87.8503 78.6211 88.8167 78.1894 89.8097 77.8268C89.8097 77.8268 90.8557 77.3653 92.8862 76.75C95.5455 75.9384 98.2934 75.4529 101.07 75.304C104.485 75.0579 108.576 75.7963 113.191 75.8886C118.137 76.0564 122.987 74.5013 126.913 71.4891C130.654 68.5232 133.913 64.9944 136.573 61.0289C138.957 57.7011 141.164 54.2506 143.187 50.6918C143.956 49.3074 144.633 48.0768 145.218 46.9077L144.572 46.3231C143.895 47.4922 143.157 48.7536 142.295 50.138C140.388 53.2146 138.08 56.5987 135.373 60.1367C132.692 63.8591 129.467 67.1571 125.805 69.9201C122.184 72.5903 117.746 73.9173 113.253 73.6735C108.946 73.4889 104.731 72.6582 100.947 72.812C97.9567 72.9209 94.9913 73.3962 92.1171 74.2272C90.025 74.8426 89.0406 75.304 89.0406 75.304C89.0406 75.304 87.8715 75.7655 85.964 76.75C83.2207 78.1289 80.6666 79.8557 78.3649 81.8878C75.2923 84.7389 72.6405 88.0123 70.489 91.6096C68.0585 95.4245 65.8435 99.6701 63.2284 103.547C58.3119 110.721 51.7917 116.651 44.1847 120.867C41.232 122.495 38.1439 123.864 34.9551 124.959C34.9551 124.959 34.9551 125.236 35.1089 125.359L36.5242 124.959C39.3526 124.193 42.1027 123.163 44.7385 121.883V121.883ZM101.285 90.1944C99.8083 91.1481 99.2853 91.5173 98.6085 92.0096C97.3164 92.9325 96.5164 93.6401 96.6087 93.794C96.701 93.9478 97.6855 93.5786 99.1315 92.9325C99.8083 92.6249 100.885 92.0711 101.1 92.0403C101.316 92.0096 101.531 92.5326 101.408 92.7479C101.124 93.446 100.694 94.0754 100.147 94.5938C99.5692 95.1534 98.941 95.6581 98.2701 96.1014C97.5426 96.5211 96.7928 96.9011 96.0241 97.2397L93.8091 98.5626C93.3169 98.8395 93.4091 98.8087 93.3476 98.8702L93.1322 99.0548C93.1322 99.0548 92.4247 99.6701 92.517 99.3317C92.5387 99.0306 92.6224 98.7373 92.763 98.4703C93.1569 97.8053 93.61 97.1772 94.1167 96.5936C95.1012 95.4245 95.9319 94.7784 95.8396 94.5938C95.7473 94.4092 94.7013 94.8092 93.4092 95.8245C92.6002 96.4451 91.8762 97.1691 91.2556 97.978C90.3687 99.2302 89.6547 100.596 89.1327 102.039C87.7791 104.439 89.9942 102.9 90.9172 102.747L94.9782 100.747L97.3778 99.5778L97.9932 99.2086C98.5892 98.9027 99.1556 98.5422 99.6852 98.1319C100.471 97.5308 101.193 96.8504 101.839 96.1014C102.691 95.1125 103.227 93.8908 103.377 92.5941C103.409 91.812 103.228 91.036 102.854 90.3482C102.639 89.333 101.87 89.979 101.285 90.1944ZM110.915 79.4573C112.077 79.7369 113.11 80.4042 113.843 81.3494C114.575 82.2945 114.964 83.461 114.945 84.6567C114.88 86.6443 114.308 88.5824 113.284 90.2867C111.297 93.9038 108.765 97.1932 105.777 100.039C105.115 100.705 104.405 101.322 103.654 101.885C101.009 104.026 98.0918 105.805 94.9782 107.177C90.0114 109.442 84.6236 110.637 79.1648 110.684H76.0883C75.4475 110.691 74.8135 110.553 74.2331 110.281C73.6526 110.01 73.1407 109.611 72.735 109.115C72.391 108.525 72.2332 107.846 72.2826 107.165C72.3321 106.484 72.5863 105.834 73.0118 105.3C73.6454 104.415 74.4258 103.645 75.3192 103.024L79.1956 100.255C79.7255 99.5235 80.3341 98.8529 81.0107 98.2549C82.272 97.0551 84.0872 95.3937 86.4254 93.5171C92.0909 88.9158 98.1908 84.8768 104.639 81.4571C106.474 80.1587 108.666 79.4601 110.915 79.4573V79.4573ZM110.607 81.4879C108.842 81.5641 107.13 82.1169 105.654 83.0876C99.209 86.2462 93.0531 89.9624 87.2561 94.1939C84.8257 95.9783 82.8567 97.5166 81.503 98.5933L88.4252 93.6709L94.3013 89.5791C95.0182 89.0111 95.8038 88.5356 96.6395 88.1639C96.05 88.8578 95.3786 89.4776 94.6399 90.0098L89.0406 94.5015L81.0723 100.655L76.5499 104.162C75.1654 105.146 73.8117 107.054 74.55 107.792C75.2884 108.531 77.6265 108.407 79.2878 108.469C84.4273 108.238 89.4688 106.983 94.1167 104.777C97.0041 103.419 99.7033 101.692 102.147 99.6393C102.851 99.1222 103.52 98.5568 104.146 97.9473C105.844 96.4424 107.399 94.7843 108.792 92.9941C110.857 90.6453 112.259 87.7887 112.853 84.7182C112.915 84.0022 112.724 83.2872 112.314 82.6971C111.904 82.107 111.3 81.6792 110.607 81.4879V81.4879Z" fill="#E0A326"/>
<path style="mix-blend-mode:color-burn" opacity="0.34" d="M71.5044 64.9963C58.5843 65.007 45.9247 68.6301 34.9552 75.4565C29.8328 89.0307 29.0851 103.867 32.8166 117.888C36.5482 131.908 44.5721 144.41 55.7644 153.642C66.9567 162.874 80.7566 168.373 95.2309 169.37C109.705 170.367 124.129 166.81 136.481 159.2C140.494 148.667 141.884 137.316 140.531 126.126C139.178 114.936 135.123 104.243 128.715 94.9707C122.307 85.698 113.739 78.1238 103.751 72.9017C93.762 67.6796 82.6528 64.9664 71.3814 64.9963H71.5044Z" fill="url(#paint2_radial_741_139)"/>
<path style="mix-blend-mode:screen" opacity="0.45" d="M92.7017 41.8946C110.566 41.9028 127.695 49.0049 140.324 61.6394C152.952 74.274 160.047 91.4067 160.047 109.271C160.049 119.375 157.756 129.348 153.34 138.436C158.63 130.801 162.282 122.154 164.067 113.039C165.852 103.924 165.731 94.5376 163.713 85.4713C161.694 76.405 157.821 67.8546 152.337 60.358C146.853 52.8614 139.877 46.5809 131.847 41.9115C123.818 37.2421 114.909 34.2849 105.682 33.226C96.4538 32.1671 87.1068 33.0293 78.2285 35.7585C69.3502 38.4877 61.1328 43.0247 54.0932 49.0842C47.0536 55.1437 41.3442 62.5944 37.3242 70.9678C43.5132 62.0023 51.7857 54.6729 61.4313 49.609C71.077 44.545 81.8076 41.8978 92.7017 41.8946V41.8946Z" fill="url(#paint3_radial_741_139)"/>
<path style="mix-blend-mode:color-burn" opacity="0.34" d="M39.6923 84.1637C36.6477 94.7799 36.4346 106.008 39.0738 116.732C41.713 127.457 47.1128 137.303 54.7366 145.294C81.164 172.768 119.559 162.523 126.512 150.278C133.465 138.034 110.176 116.806 86.8556 118.805C63.5355 120.805 69.7501 85.6404 57.8439 77.8568C45.9378 70.0732 41.7844 79.4874 39.6923 84.1637Z" fill="url(#paint4_radial_741_139)"/>
<g style="mix-blend-mode:screen">
<path style="mix-blend-mode:screen" opacity="0.45" d="M71.6584 53.7986C73.2889 50.1376 85.595 30.1094 119.714 41.4925C153.832 52.8757 161.093 93.0859 152.817 104.561C144.541 116.037 129.866 110.714 120.483 93.8242C111.099 76.9341 86.118 80.5336 77.4115 70.9964C68.7049 61.4592 69.9355 57.5827 71.6584 53.7986Z" fill="url(#paint5_radial_741_139)"/>
<path style="mix-blend-mode:screen" d="M122.175 54.1986C121.037 58.2904 113.961 59.9209 106.393 57.7981C98.8243 55.6753 93.5634 50.6606 94.7018 46.5688C95.8401 42.477 102.916 40.8772 110.484 42.9693C118.053 45.0613 123.313 49.9838 122.175 54.1986Z" fill="url(#paint6_radial_741_139)"/>
<path style="mix-blend-mode:screen" d="M139.558 64.5363C138.05 66.3206 134.143 65.5207 130.82 62.7211C127.498 59.9215 126.021 56.1989 127.528 54.4145C129.036 52.6301 132.943 53.43 136.266 56.2296C139.588 59.0293 141.127 62.7211 139.558 64.5363Z" fill="url(#paint7_radial_741_139)"/>
</g>
<defs>
<radialGradient id="paint0_radial_741_139" cx="0" cy="0" r="1" gradientUnits="userSpaceOnUse" gradientTransform="translate(100.296 98.9406) scale(81.3126 81.3126)">
<stop stop-color="#8EE1EE"/>
<stop offset="0.62" stop-color="#5E8DEC"/>
<stop offset="0.7" stop-color="#5E8CEB" stop-opacity="0.99"/>
<stop offset="0.75" stop-color="#5F8AE9" stop-opacity="0.95"/>
<stop offset="0.8" stop-color="#6085E5" stop-opacity="0.89"/>
<stop offset="0.84" stop-color="#627FDF" stop-opacity="0.8"/>
<stop offset="0.87" stop-color="#6576D8" stop-opacity="0.68"/>
<stop offset="0.91" stop-color="#686CCE" stop-opacity="0.54"/>
<stop offset="0.94" stop-color="#6C60C4" stop-opacity="0.37"/>
<stop offset="0.97" stop-color="#7053B7" stop-opacity="0.18"/>
<stop offset="1" stop-color="#7446AC" stop-opacity="0"/>
</radialGradient>
<radialGradient id="paint1_radial_741_139" cx="0" cy="0" r="1" gradientUnits="userSpaceOnUse" gradientTransform="translate(87.5334 69.6735) scale(129.46 129.46)">
<stop stop-color="#8EE1EE"/>
<stop offset="0.62" stop-color="#5E8DEC"/>
<stop offset="0.63" stop-color="#5F89E8"/>
<stop offset="0.74" stop-color="#6B64C7"/>
<stop offset="0.84" stop-color="#714EB3"/>
<stop offset="0.9" stop-color="#7446AC"/>
</radialGradient>
<radialGradient id="paint2_radial_741_139" cx="0" cy="0" r="1" gradientUnits="userSpaceOnUse" gradientTransform="translate(75.8423 94.531) scale(99.5871 99.5872)">
<stop offset="0.06" stop-color="#66B0D8"/>
<stop offset="1" stop-color="#3F1F7D"/>
</radialGradient>
<radialGradient id="paint3_radial_741_139" cx="0" cy="0" r="1" gradientUnits="userSpaceOnUse" gradientTransform="translate(89.8405 62.6919) scale(107.063 107.063)">
<stop offset="0.05" stop-color="#E0A326"/>
<stop offset="0.41" stop-color="#E0A227" stop-opacity="0.99"/>
<stop offset="0.55" stop-color="#DF9E2B" stop-opacity="0.96"/>
<stop offset="0.64" stop-color="#DE9833" stop-opacity="0.91"/>
<stop offset="0.71" stop-color="#DD8F3E" stop-opacity="0.83"/>
<stop offset="0.78" stop-color="#DB844C" stop-opacity="0.73"/>
<stop offset="0.84" stop-color="#D8755D" stop-opacity="0.61"/>
<stop offset="0.89" stop-color="#D56471" stop-opacity="0.47"/>
<stop offset="0.93" stop-color="#D25089" stop-opacity="0.3"/>
<stop offset="0.98" stop-color="#CE3BA3" stop-opacity="0.12"/>
<stop offset="1" stop-color="#CC2DB4" stop-opacity="0"/>
</radialGradient>
<radialGradient id="paint4_radial_741_139" cx="0" cy="0" r="1" gradientUnits="userSpaceOnUse" gradientTransform="translate(74.3957 99.7001) scale(82.6356 82.6355)">
<stop offset="0.06" stop-color="#66B0D8"/>
<stop offset="1" stop-color="#3F1F7D"/>
</radialGradient>
<radialGradient id="paint5_radial_741_139" cx="0" cy="0" r="1" gradientUnits="userSpaceOnUse" gradientTransform="translate(182.681 -16.489) rotate(62.6761) scale(162.562 143.173)">
<stop offset="0.05" stop-color="#E0A326"/>
<stop offset="0.41" stop-color="#E0A227" stop-opacity="0.99"/>
<stop offset="0.55" stop-color="#DF9E2B" stop-opacity="0.96"/>
<stop offset="0.64" stop-color="#DE9833" stop-opacity="0.91"/>
<stop offset="0.71" stop-color="#DD8F3E" stop-opacity="0.83"/>
<stop offset="0.78" stop-color="#DB844C" stop-opacity="0.73"/>
<stop offset="0.84" stop-color="#D8755D" stop-opacity="0.61"/>
<stop offset="0.89" stop-color="#D56471" stop-opacity="0.47"/>
<stop offset="0.93" stop-color="#D25089" stop-opacity="0.3"/>
<stop offset="0.98" stop-color="#CE3BA3" stop-opacity="0.12"/>
<stop offset="1" stop-color="#CC2DB4" stop-opacity="0"/>
</radialGradient>
<radialGradient id="paint6_radial_741_139" cx="0" cy="0" r="1" gradientUnits="userSpaceOnUse" gradientTransform="translate(96.8987 24.6518) rotate(15.52) scale(39.9641 39.9641)">
<stop offset="0.05" stop-color="#E0A326"/>
<stop offset="0.41" stop-color="#E0A227" stop-opacity="0.99"/>
<stop offset="0.55" stop-color="#DF9E2B" stop-opacity="0.96"/>
<stop offset="0.64" stop-color="#DE9833" stop-opacity="0.91"/>
<stop offset="0.71" stop-color="#DD8F3E" stop-opacity="0.83"/>
<stop offset="0.78" stop-color="#DB844C" stop-opacity="0.73"/>
<stop offset="0.84" stop-color="#D8755D" stop-opacity="0.61"/>
<stop offset="0.89" stop-color="#D56471" stop-opacity="0.47"/>
<stop offset="0.93" stop-color="#D25089" stop-opacity="0.3"/>
<stop offset="0.98" stop-color="#CE3BA3" stop-opacity="0.12"/>
<stop offset="1" stop-color="#CC2DB4" stop-opacity="0"/>
</radialGradient>
<radialGradient id="paint7_radial_741_139" cx="0" cy="0" r="1" gradientUnits="userSpaceOnUse" gradientTransform="translate(133.519 44.227) rotate(40.0101) scale(22.0586 22.0587)">
<stop offset="0.05" stop-color="#E0A326"/>
<stop offset="0.41" stop-color="#E0A227" stop-opacity="0.99"/>
<stop offset="0.55" stop-color="#DF9E2B" stop-opacity="0.96"/>
<stop offset="0.64" stop-color="#DE9833" stop-opacity="0.91"/>
<stop offset="0.71" stop-color="#DD8F3E" stop-opacity="0.83"/>
<stop offset="0.78" stop-color="#DB844C" stop-opacity="0.73"/>
<stop offset="0.84" stop-color="#D8755D" stop-opacity="0.61"/>
<stop offset="0.89" stop-color="#D56471" stop-opacity="0.47"/>
<stop offset="0.93" stop-color="#D25089" stop-opacity="0.3"/>
<stop offset="0.98" stop-color="#CE3BA3" stop-opacity="0.12"/>
<stop offset="1" stop-color="#CC2DB4" stop-opacity="0"/>
</radialGradient>
</defs>
</svg>
