<svg width="230" height="230" viewBox="0 0 230 230" fill="none" xmlns="http://www.w3.org/2000/svg">
<path d="M212.208 130.821C220.91 77.2144 184.507 26.7037 130.901 18.0021C77.294 9.30051 26.7833 45.7032 18.0818 99.3098C9.38019 152.916 45.7829 203.427 99.3894 212.129C152.996 220.83 203.507 184.428 212.208 130.821Z" fill="url(#paint0_radial_224_3080)"/>
<path d="M148.683 196.317C193.593 177.715 214.92 126.227 196.317 81.317C177.715 36.4067 126.227 15.0801 81.3171 33.6826C36.4068 52.285 15.0803 103.772 33.6827 148.682C52.2851 193.593 103.772 214.92 148.683 196.317Z" fill="url(#paint1_radial_224_3080)"/>
<path style="mix-blend-mode:screen" d="M47.0725 103.864C43.1222 96.3226 44.3301 85.4511 46.7134 78.1381C51.839 62.6632 65.1265 51.4979 78.9363 43.7931C122.129 19.6994 169.598 49.539 173.613 68.5071C177.629 87.4752 158.661 97.5306 132.804 91.3602C106.948 85.1899 87.4573 113.985 69.5992 114.213C62.7197 114.733 55.8978 112.634 50.5002 108.337C49.0951 107.067 47.9336 105.551 47.0725 103.864Z" fill="url(#paint2_radial_224_3080)"/>
<g opacity="0.7">
<path style="mix-blend-mode:screen" opacity="0.7" d="M62.156 73.3403C60.1157 67.2141 58.4152 60.9798 57.0628 54.666C44.1119 67.2123 35.5825 83.6228 32.7567 101.432C29.9308 119.24 32.9614 137.485 41.3924 153.424C37.5698 139.424 37.4746 124.667 41.117 110.619C44.7593 96.5709 52.0124 83.7195 62.156 73.3403Z" fill="url(#paint3_radial_224_3080)"/>
<path style="mix-blend-mode:screen" opacity="0.7" d="M160.163 44.5784C145.215 34.9058 127.559 30.2822 109.789 31.387C92.0191 32.4917 75.0721 39.2665 61.4375 50.7161C62.6793 57.0488 64.2815 63.3055 66.2366 69.4556C79.1669 57.8676 95.398 50.6143 112.657 48.7116C129.915 46.809 147.337 50.3523 162.481 58.8452C162.094 54.0349 161.319 49.2637 160.163 44.5784Z" fill="url(#paint4_radial_224_3080)"/>
<path style="mix-blend-mode:screen" opacity="0.7" d="M183.147 75.3978C183.146 72.2899 182.983 69.1841 182.657 66.0933C177.637 59.0822 171.57 52.8831 164.668 47.7129C165.466 52.1583 165.967 56.6517 166.17 61.1636C172.444 65.1228 178.154 69.9108 183.147 75.3978Z" fill="url(#paint5_radial_224_3080)"/>
<path style="mix-blend-mode:screen" opacity="0.7" d="M186.803 79.6751C190.024 83.6847 192.855 87.9918 195.259 92.5382C193.342 85.5264 190.51 78.7976 186.836 72.5254C186.901 74.9086 186.901 77.2919 186.803 79.6751Z" fill="url(#paint6_radial_224_3080)"/>
</g>
<path style="mix-blend-mode:multiply" opacity="0.5" d="M174.266 52.3135C177.856 61.981 179.28 72.3184 178.439 82.5964C177.598 92.8743 174.511 102.843 169.398 111.798C164.285 120.753 157.268 128.477 148.844 134.425C140.42 140.374 130.794 144.401 120.644 146.223C110.494 148.046 100.067 147.618 90.1003 144.972C80.1333 142.326 70.8684 137.525 62.9591 130.907C55.0498 124.29 48.6891 116.018 44.3252 106.675C39.9612 97.3312 37.7006 87.144 37.7028 76.8316C37.7028 76.8316 37.7028 76.5378 37.7028 76.4072C30.4915 90.7368 27.4081 106.79 28.797 122.771C30.1859 138.753 35.9922 154.033 45.5674 166.904C55.1425 179.775 68.1091 189.729 83.0169 195.653C97.9248 201.577 114.186 203.238 129.984 200.451C145.782 197.663 160.493 190.536 172.473 179.867C184.452 169.198 193.228 155.407 197.82 140.036C202.411 124.665 202.637 108.32 198.471 92.8288C194.306 77.3371 185.914 63.3093 174.234 52.3135H174.266Z" fill="url(#paint7_radial_224_3080)"/>
<path style="mix-blend-mode:multiply" opacity="0.5" d="M197.185 102.101V102.46C197.185 150.027 159.771 188.583 113.608 188.583C70.9052 188.583 35.6786 155.544 30.6836 112.907C30.8795 160.311 68.1952 198.639 114.228 198.639C160.261 198.639 197.805 160.082 197.805 112.515C197.797 109.035 197.59 105.557 197.185 102.101Z" fill="url(#paint8_radial_224_3080)"/>
<path style="mix-blend-mode:multiply" opacity="0.5" d="M140.411 41.2795C140.411 46.699 131.139 51.0737 119.713 51.0737C108.286 51.0737 99.0469 46.6664 99.0469 41.2795C99.0469 35.8927 108.286 31.4854 119.713 31.4854C131.139 31.4854 140.411 35.8601 140.411 41.2795Z" fill="url(#paint9_radial_224_3080)"/>
<path style="mix-blend-mode:multiply" opacity="0.5" d="M100.875 45.3285C104.14 48.5932 111.323 51.107 119.713 51.107C129.018 51.107 136.885 48.2014 139.497 44.1858C136.232 40.9211 129.018 38.4072 120.627 38.4072C111.355 38.4072 103.487 41.3128 100.875 45.3285Z" fill="url(#paint10_radial_224_3080)"/>
<path style="mix-blend-mode:multiply" opacity="0.5" d="M184.942 150.975C179.62 149.93 177.107 139.973 179.327 128.775C181.547 117.576 187.684 109.186 193.006 110.394C198.327 111.602 200.841 121.396 198.621 132.594C196.401 143.792 190.263 152.052 184.942 150.975Z" fill="url(#paint11_radial_224_3080)"/>
<path style="mix-blend-mode:multiply" opacity="0.5" d="M188.599 111.407C184.616 113.921 180.894 120.548 179.262 128.776C177.433 137.884 178.772 146.177 182.2 149.507C186.183 146.993 189.905 140.365 191.537 132.138C193.43 123.03 192.092 114.77 188.599 111.407Z" fill="url(#paint12_radial_224_3080)"/>
<path style="mix-blend-mode:multiply" opacity="0.5" d="M99.8304 176.373C99.504 170.954 108.449 165.992 119.876 165.273C131.302 164.555 140.802 168.538 141.129 173.794C141.455 179.051 132.51 184.176 121.083 184.894C109.657 185.613 100.157 181.793 99.8304 176.373Z" fill="url(#paint13_radial_224_3080)"/>
<path style="mix-blend-mode:multiply" opacity="0.5" d="M139.04 169.877C135.579 166.612 128.234 164.751 119.876 165.274C110.604 165.861 102.932 169.257 100.582 173.403C103.846 176.668 111.355 178.529 119.745 178.006C129.017 177.419 136.689 174.023 139.04 169.877Z" fill="url(#paint14_radial_224_3080)"/>
<path style="mix-blend-mode:multiply" opacity="0.5" d="M68.4893 124.823C75.0188 115.258 89.3183 113.691 100.712 121.297C112.106 128.904 116.154 142.845 109.756 152.41C103.357 161.976 88.9266 163.576 77.5327 155.936C66.1388 148.297 62.0905 134.389 68.4893 124.823Z" fill="url(#paint15_radial_224_3080)"/>
<path style="mix-blend-mode:multiply" opacity="0.5" d="M100.712 121.298C90.4281 114.442 77.859 115.03 70.5786 122.245C66.6609 131.55 70.9704 143.531 81.2217 150.42C91.4729 157.308 104.238 156.655 111.322 149.44C115.273 140.005 110.963 128.154 100.712 121.298Z" fill="url(#paint16_radial_224_3080)"/>
<path style="mix-blend-mode:multiply" opacity="0.5" d="M134.959 76.9963C133.229 84.2113 124.871 88.3902 116.285 86.3334C107.698 84.2766 102.149 76.7677 103.879 69.5527C105.609 62.3376 113.967 58.1588 122.553 60.2156C131.139 62.2723 136.689 69.7812 134.959 76.9963Z" fill="url(#paint17_radial_224_3080)"/>
<path style="mix-blend-mode:multiply" opacity="0.5" d="M116.285 86.3338C119.663 87.3551 123.289 87.1861 126.557 85.8551C129.825 84.524 132.538 82.1115 134.241 79.0208C133.912 75.5619 132.51 72.2924 130.231 69.6703C127.951 67.0483 124.909 65.205 121.529 64.3988C118.149 63.5926 114.602 63.8638 111.385 65.1745C108.167 66.4851 105.439 68.7696 103.585 71.7078C103.716 75.2287 105.047 78.5991 107.357 81.2596C109.667 83.92 112.817 85.7105 116.285 86.3338Z" fill="url(#paint18_radial_224_3080)"/>
<path style="mix-blend-mode:multiply" opacity="0.5" d="M134.992 149.505C129.115 142.322 131.303 130.798 139.889 123.811C148.475 116.825 160.195 116.988 166.007 124.203C171.818 131.418 169.663 142.943 161.077 149.929C152.491 156.916 140.836 156.72 134.992 149.505Z" fill="url(#paint19_radial_224_3080)"/>
<path style="mix-blend-mode:multiply" opacity="0.5" d="M139.889 123.684C132.151 129.985 129.605 140.007 133.359 147.157C139.595 152.381 149.879 151.924 157.616 145.623C165.354 139.322 167.9 129.299 164.146 122.149C157.91 117.154 147.626 117.513 139.889 123.684Z" fill="url(#paint20_radial_224_3080)"/>
<path style="mix-blend-mode:multiply" opacity="0.5" d="M73.7129 59.858C77.1735 62.3719 75.6717 70.3052 70.4481 77.5855C65.2246 84.8659 58.0091 88.6856 54.5485 86.1718C51.0879 83.6579 52.6223 75.692 57.8132 68.4443C63.0042 61.1966 70.2522 57.3115 73.7129 59.858Z" fill="url(#paint21_radial_224_3080)"/>
<path style="mix-blend-mode:multiply" opacity="0.5" d="M58.009 86.889C63.166 85.4209 67.604 82.1097 70.4801 77.5845C74.7896 71.6753 76.6181 65.3091 75.2796 61.7832C70.1226 63.2513 65.6843 66.5625 62.8081 71.0877C58.3681 76.9968 56.5399 83.3631 58.009 86.889Z" fill="url(#paint22_radial_224_3080)"/>
<path style="mix-blend-mode:multiply" opacity="0.5" d="M38.9434 136.022C43.6446 133.28 52.0022 139.026 57.944 148.853C63.8858 158.679 64.4734 168.931 59.9681 171.706C55.4628 174.481 46.9094 168.735 41.0002 158.875C35.091 149.016 34.2748 138.797 38.9434 136.022Z" fill="url(#paint23_radial_224_3080)"/>
<path style="mix-blend-mode:multiply" opacity="0.5" d="M62.5147 168.05C63.8206 163.513 62.1882 156.102 57.944 148.854C53.2102 140.855 46.7133 135.566 41.9468 135.338C40.6409 139.876 42.2733 147.287 46.5175 154.535C51.2513 162.533 57.7482 167.822 62.5147 168.05Z" fill="url(#paint24_radial_224_3080)"/>
<path style="mix-blend-mode:multiply" opacity="0.5" d="M165.746 54.9271C164.211 57.6042 158.4 57.1471 152.687 53.9151C146.973 50.683 143.774 45.9165 145.308 43.2394C146.843 40.5623 152.621 41.052 158.367 44.2514C164.113 47.4509 167.215 52.2827 165.746 54.9271Z" fill="url(#paint25_radial_224_3080)"/>
<path style="mix-blend-mode:multiply" opacity="0.5" d="M145.145 45.7532C146.588 49.3182 149.297 52.2247 152.752 53.915C157.29 56.5268 161.991 57.1797 164.407 56.1024C162.948 52.5367 160.229 49.6319 156.768 47.9405C152.23 45.3288 147.561 44.5126 145.145 45.7532Z" fill="url(#paint26_radial_224_3080)"/>
<path style="mix-blend-mode:multiply" opacity="0.5" d="M128.169 193.352C127.418 190.381 131.891 186.823 138.192 185.092C144.493 183.362 150.14 184.668 150.891 187.671C151.642 190.675 147.169 194.201 140.901 195.899C134.633 197.596 128.92 196.323 128.169 193.352Z" fill="url(#paint27_radial_224_3080)"/>
<path style="mix-blend-mode:multiply" opacity="0.5" d="M149.422 185.713C145.908 184.162 141.947 183.953 138.289 185.125C133.163 186.431 129.246 189.108 128.495 191.655C132.017 193.22 135.993 193.429 139.66 192.242C144.525 190.936 148.442 188.259 149.422 185.713Z" fill="url(#paint28_radial_224_3080)"/>
<path style="mix-blend-mode:multiply" opacity="0.5" d="M36.6252 107.651C39.6941 107.651 42.4365 112.614 42.7629 119.078C43.0894 125.542 40.837 130.896 37.7682 131.06C34.6993 131.223 31.957 126.097 31.6305 119.633C31.304 113.169 33.5237 107.815 36.6252 107.651Z" fill="url(#paint29_radial_224_3080)"/>
<path style="mix-blend-mode:multiply" opacity="0.5" d="M40.0208 129.919C42.2365 126.766 43.2127 122.907 42.763 119.08C42.5019 113.824 40.6083 109.482 38.2904 108.11C36.0625 111.245 35.0847 115.099 35.5481 118.917C35.8093 124.173 37.6702 128.548 40.0208 129.919Z" fill="url(#paint30_radial_224_3080)"/>
<path style="mix-blend-mode:multiply" opacity="0.5" d="M87.1637 190.022C87.8819 187.018 93.6928 185.81 99.8631 187.28C106.033 188.749 110.702 192.34 109.984 195.343C109.266 198.347 103.455 199.588 97.3169 198.118C91.1792 196.649 86.4781 193.025 87.1637 190.022Z" fill="url(#paint31_radial_224_3080)"/>
<path style="mix-blend-mode:multiply" opacity="0.5" d="M109.494 192.863C107.041 189.844 103.548 187.853 99.7001 187.28C94.5745 186.072 89.906 186.66 87.8818 188.521C90.3272 191.554 93.8228 193.559 97.676 194.136C102.834 195.508 107.535 194.757 109.494 192.863Z" fill="url(#paint32_radial_224_3080)"/>
<path style="mix-blend-mode:multiply" opacity="0.5" d="M197.675 107.751C195.487 108.599 192.255 105.498 190.492 100.862C188.729 96.226 189.056 91.786 191.276 91.0678C193.496 90.3495 196.695 93.3204 198.458 97.9564C200.221 102.592 199.895 106.902 197.675 107.751Z" fill="url(#paint33_radial_224_3080)"/>
<path style="mix-blend-mode:multiply" opacity="0.5" d="M189.904 92.3066C189.035 95.1324 189.245 98.1799 190.492 100.86C190.896 102.382 191.633 103.795 192.649 104.997C193.665 106.2 194.936 107.162 196.369 107.814C197.238 104.988 197.028 101.941 195.781 99.2605C195.36 97.7464 194.617 96.3412 193.603 95.1409C192.589 93.9407 191.327 92.9738 189.904 92.3066Z" fill="url(#paint34_radial_224_3080)"/>
<path style="mix-blend-mode:multiply" opacity="0.5" d="M173.287 169.39C171.492 167.888 172.569 163.546 175.736 159.595C178.903 155.645 182.95 153.882 184.746 155.417C186.542 156.951 185.497 161.228 182.33 165.211C179.163 169.194 175.115 170.728 173.287 169.39Z" fill="url(#paint35_radial_224_3080)"/>
<path style="mix-blend-mode:multiply" opacity="0.5" d="M182.885 154.859C180.002 155.487 177.455 157.162 175.736 159.561C174.6 160.662 173.72 161.998 173.156 163.476C172.592 164.953 172.358 166.537 172.471 168.114C175.361 167.463 177.915 165.78 179.653 163.38C180.78 162.281 181.653 160.949 182.211 159.477C182.77 158.005 183 156.429 182.885 154.859Z" fill="url(#paint36_radial_224_3080)"/>
<path style="mix-blend-mode:multiply" opacity="0.5" d="M48.705 123.846C50.2395 123.356 52.3287 125.543 53.3734 128.776C54.4181 132.008 54.0267 135.011 52.4922 135.501C50.9578 135.991 48.9009 133.803 47.8562 130.571C46.8115 127.339 47.1706 124.336 48.705 123.846Z" fill="url(#paint37_radial_224_3080)"/>
<path style="mix-blend-mode:multiply" opacity="0.5" d="M53.4716 134.618C54.2119 132.741 54.2119 130.652 53.4716 128.774C53.2449 127.728 52.7913 126.744 52.1425 125.892C51.4938 125.04 50.6656 124.341 49.7171 123.845C48.9927 125.725 48.9927 127.808 49.7171 129.689C49.9501 130.733 50.4065 131.714 51.0546 132.565C51.7027 133.416 52.5271 134.116 53.4716 134.618Z" fill="url(#paint38_radial_224_3080)"/>
<path style="mix-blend-mode:multiply" opacity="0.5" d="M100.451 77.1598C101.339 78.0863 101.919 79.2641 102.113 80.5326C102.306 81.8011 102.104 83.0984 101.533 84.2477C100.963 85.3969 100.051 86.3421 98.9233 86.9542C97.7956 87.5664 96.5064 87.8158 95.2318 87.6683C93.9571 87.5208 92.759 86.9837 91.8009 86.1301C90.8427 85.2766 90.1712 84.1483 89.878 82.8991C89.5847 81.6499 89.6839 80.3406 90.1621 79.1499C90.6404 77.9592 91.4742 76.945 92.5501 76.2457C93.7246 75.3336 95.21 74.9185 96.6872 75.0894C98.1644 75.2603 99.5157 76.0037 100.451 77.1598Z" fill="url(#paint39_radial_224_3080)"/>
<path style="mix-blend-mode:multiply" opacity="0.5" d="M91.7341 85.288C92.7409 85.7558 93.8531 85.9508 94.959 85.8534C96.0649 85.756 97.1257 85.3696 98.0352 84.733C99.0937 84.1227 99.9434 83.2074 100.473 82.1066C101.003 81.0057 101.189 79.7706 101.006 78.5626C100.001 78.0882 98.8878 77.8895 97.7805 77.9871C96.6733 78.0846 95.6119 78.4748 94.7051 79.1176C93.6528 79.7345 92.8084 80.6509 92.2793 81.7499C91.7501 82.8489 91.5601 84.0807 91.7341 85.288Z" fill="url(#paint40_radial_224_3080)"/>
<path style="mix-blend-mode:multiply" opacity="0.5" d="M145.896 58.3863C145.309 59.8881 142.272 60.084 139.138 58.8434C136.004 57.6028 133.915 55.3501 134.502 53.881C135.09 52.4119 138.126 52.1833 141.293 53.4239C144.46 54.6645 146.484 56.8846 145.896 58.3863Z" fill="url(#paint41_radial_224_3080)"/>
<path style="mix-blend-mode:multiply" opacity="0.5" d="M134.567 55.1217C135.582 56.8678 137.212 58.1719 139.138 58.7782C140.091 59.2698 141.139 59.5478 142.211 59.5929C143.282 59.638 144.35 59.4491 145.341 59.0393C144.327 57.2932 142.697 55.9891 140.77 55.3828C139.818 54.8912 138.769 54.6132 137.698 54.5681C136.627 54.5229 135.558 54.7119 134.567 55.1217Z" fill="url(#paint42_radial_224_3080)"/>
<path style="mix-blend-mode:multiply" opacity="0.5" d="M172.895 124.63C171.85 124.58 170.847 124.205 170.026 123.558C169.204 122.911 168.604 122.024 168.31 121.02C168.017 120.016 168.043 118.945 168.386 117.957C168.73 116.969 169.373 116.113 170.226 115.508C171.079 114.902 172.1 114.578 173.146 114.58C174.192 114.582 175.211 114.91 176.061 115.519C176.912 116.128 177.552 116.986 177.891 117.976C178.231 118.965 178.253 120.036 177.955 121.038C177.74 122.175 177.093 123.185 176.149 123.854C175.206 124.524 174.039 124.802 172.895 124.63Z" fill="url(#paint43_radial_224_3080)"/>
<path style="mix-blend-mode:multiply" opacity="0.5" d="M174.071 115.259C173.267 115.541 172.546 116.021 171.976 116.654C171.405 117.288 171.003 118.054 170.806 118.883C170.477 119.776 170.417 120.747 170.631 121.674C170.846 122.602 171.326 123.447 172.014 124.106C172.816 123.821 173.535 123.34 174.105 122.708C174.675 122.075 175.078 121.31 175.278 120.482C175.607 119.589 175.667 118.618 175.453 117.691C175.238 116.763 174.758 115.918 174.071 115.259Z" fill="url(#paint44_radial_224_3080)"/>
<path style="mix-blend-mode:multiply" opacity="0.5" d="M74.9856 43.9246C76.9118 46.3405 74.3653 51.5641 69.305 55.5797C64.2447 59.5953 58.564 60.9338 56.6705 58.5506C54.777 56.1673 57.2908 50.9111 62.3511 46.8955C67.4114 42.8799 73.0594 41.5413 74.9856 43.9246Z" fill="url(#paint45_radial_224_3080)"/>
<path style="mix-blend-mode:multiply" opacity="0.5" d="M58.8908 59.6939C62.7504 59.6521 66.4587 58.1873 69.3051 55.5803C73.4187 52.3156 75.8347 48.2347 75.6062 45.5576C71.7616 45.5954 68.0655 47.0482 65.2242 49.6385C61.2739 52.9359 58.6296 56.9842 58.8908 59.6939Z" fill="url(#paint46_radial_224_3080)"/>
<path style="mix-blend-mode:multiply" opacity="0.5" d="M156.735 170.074C157.42 171.25 156.245 173.339 154.155 174.384C152.066 175.429 149.814 175.592 149.128 174.384C148.442 173.176 149.585 171.119 151.707 170.074C153.829 169.03 155.951 168.866 156.735 170.074Z" fill="url(#paint47_radial_224_3080)"/>
<path style="mix-blend-mode:multiply" opacity="0.5" d="M160.946 163.153C161.371 163.871 160.685 165.046 159.379 165.765C158.073 166.483 156.735 166.516 156.343 165.765C155.951 165.014 156.637 163.839 157.91 163.12C159.183 162.402 160.555 162.435 160.946 163.153Z" fill="url(#paint48_radial_224_3080)"/>
<path style="mix-blend-mode:multiply" opacity="0.5" d="M64.5391 151.562C63.168 152.248 61.0784 150.844 59.8704 148.297C58.6625 145.751 58.7933 143.368 60.1318 142.682C61.4704 141.996 63.5922 143.4 64.8002 145.947C66.0081 148.493 65.7797 150.876 64.5391 151.562Z" fill="url(#paint49_radial_224_3080)"/>
<path style="mix-blend-mode:multiply" opacity="0.5" d="M69.0443 157.015C68.2281 157.439 66.9549 156.59 66.2367 155.154C65.5184 153.717 65.5837 152.183 66.2367 151.889C66.8896 151.595 68.326 152.313 69.0443 153.783C69.7625 155.252 69.8931 156.623 69.0443 157.015Z" fill="url(#paint50_radial_224_3080)"/>
<path style="mix-blend-mode:multiply" opacity="0.5" d="M45.8317 121.92C45.0808 121.92 44.3299 121.005 44.1667 119.7C44.0034 118.394 44.493 117.251 45.2439 117.153C45.9948 117.055 46.713 118.067 46.8763 119.373C47.0395 120.679 46.55 121.822 45.8317 121.92Z" fill="url(#paint51_radial_224_3080)"/>
<path style="mix-blend-mode:multiply" opacity="0.5" d="M186.052 99.7854C184.942 99.7854 183.897 98.4468 183.669 96.5206C183.44 94.5944 184.126 92.9621 185.203 92.8315C186.281 92.7009 187.358 94.1374 187.586 96.0962C187.815 98.0551 187.129 99.6548 186.052 99.7854Z" fill="url(#paint52_radial_224_3080)"/>
<path style="mix-blend-mode:multiply" opacity="0.5" d="M184.779 106.445C184.061 106.445 183.375 105.596 183.212 104.323C183.049 103.05 183.506 102.005 184.224 101.907C184.942 101.809 185.628 102.789 185.791 104.029C185.954 105.27 185.497 106.38 184.779 106.445Z" fill="url(#paint53_radial_224_3080)"/>
<path style="mix-blend-mode:multiply" opacity="0.5" d="M77.5977 183.395C76.7489 184.472 74.3329 184.113 72.6026 182.611C70.8723 181.11 69.893 179.02 70.7418 177.943C71.5907 176.865 73.8108 177.225 75.7043 178.726C77.5978 180.228 78.3486 182.448 77.5977 183.395Z" fill="url(#paint54_radial_224_3080)"/>
<path style="mix-blend-mode:multiply" opacity="0.5" d="M85.4656 184.734C84.9759 185.386 83.6045 185.191 82.4619 184.276C81.3192 183.362 80.7969 182.089 81.3193 181.436C81.8417 180.783 83.1803 180.979 84.323 181.926C85.4657 182.873 85.9879 184.113 85.4656 184.734Z" fill="url(#paint55_radial_224_3080)"/>
<path style="mix-blend-mode:multiply" opacity="0.5" d="M71.0684 173.599C70.546 174.252 69.2073 174.023 68.032 173.109C66.8567 172.195 66.3997 170.922 66.8895 170.269C67.3792 169.616 68.7832 169.844 69.9258 170.759C71.0685 171.673 71.7213 172.946 71.0684 173.599Z" fill="url(#paint56_radial_224_3080)"/>
<path style="mix-blend-mode:screen" opacity="0.5" d="M81.1563 47.6785C80.6992 46.3726 82.1684 44.675 84.421 43.8588C86.6737 43.0426 88.9264 43.4344 89.3835 44.7076C89.8405 45.9809 88.4041 47.7112 86.1188 48.5274C83.8334 49.3435 81.6134 48.9518 81.1563 47.6785ZM78.8058 54.208C80.2096 53.7183 81.0911 52.6736 80.7972 51.89C80.5034 51.1065 79.1651 50.878 77.7939 51.3677C76.4227 51.8574 75.5083 52.9021 75.8021 53.6856C76.0959 54.4692 77.5978 54.763 78.8058 54.2733V54.208ZM95.8149 47.9071C97.1861 47.4173 98.1002 46.3726 97.8063 45.5891C97.5125 44.8056 96.1742 44.577 94.803 45.0667C93.4319 45.5564 92.5178 46.6012 92.7789 47.4173C93.0401 48.2335 94.4111 48.5927 95.8149 47.9724V47.9071ZM155.429 63.0228C155.821 61.6842 158.008 61.1945 160.326 61.8801C162.644 62.5657 164.211 64.1981 163.82 65.504C163.428 66.8099 161.24 67.3322 158.922 66.614C156.604 65.8957 155.037 64.3939 155.429 63.0881V63.0228ZM167.052 71.9355C168.488 72.3599 169.794 71.9355 170.055 71.2499C170.316 70.5643 169.337 69.4543 167.933 69.0299C166.529 68.6054 165.191 69.0299 164.929 69.7481C164.668 70.4663 165.746 71.4458 167.052 72.0008V71.9355Z" fill="url(#paint57_radial_224_3080)"/>
<defs>
<radialGradient id="paint0_radial_224_3080" cx="0" cy="0" r="1" gradientUnits="userSpaceOnUse" gradientTransform="translate(114.256 114.471) scale(99.4111 99.4111)">
<stop offset="0.06" stop-color="#FCE085"/>
<stop offset="0.41" stop-color="#FCDF86" stop-opacity="0.99"/>
<stop offset="0.54" stop-color="#FBDD89" stop-opacity="0.97"/>
<stop offset="0.63" stop-color="#FAD98F" stop-opacity="0.92"/>
<stop offset="0.7" stop-color="#F9D397" stop-opacity="0.85"/>
<stop offset="0.76" stop-color="#F8CBA1" stop-opacity="0.76"/>
<stop offset="0.82" stop-color="#F5C2AE" stop-opacity="0.66"/>
<stop offset="0.87" stop-color="#F3B6BE" stop-opacity="0.53"/>
<stop offset="0.91" stop-color="#F0A9D0" stop-opacity="0.38"/>
<stop offset="0.96" stop-color="#ED9AE4" stop-opacity="0.21"/>
<stop offset="1" stop-color="#E988FD" stop-opacity="0"/>
</radialGradient>
<radialGradient id="paint1_radial_224_3080" cx="0" cy="0" r="1" gradientUnits="userSpaceOnUse" gradientTransform="translate(123.444 37.9533) scale(173.325 173.325)">
<stop offset="0.06" stop-color="#FCE085"/>
<stop offset="0.96" stop-color="#E988FD"/>
</radialGradient>
<radialGradient id="paint2_radial_224_3080" cx="0" cy="0" r="1" gradientUnits="userSpaceOnUse" gradientTransform="translate(80.4723 -72.4559) rotate(14.9586) scale(223.465 196.289)">
<stop offset="0.06" stop-color="#FCE085"/>
<stop offset="0.96" stop-color="#E988FD"/>
</radialGradient>
<radialGradient id="paint3_radial_224_3080" cx="0" cy="0" r="1" gradientUnits="userSpaceOnUse" gradientTransform="translate(121.281 38.8647) scale(128.958 128.957)">
<stop offset="0.06" stop-color="#FCE085"/>
<stop offset="0.96" stop-color="#E988FD"/>
</radialGradient>
<radialGradient id="paint4_radial_224_3080" cx="0" cy="0" r="1" gradientUnits="userSpaceOnUse" gradientTransform="translate(121.28 38.8651) scale(128.957 128.957)">
<stop offset="0.06" stop-color="#FCE085"/>
<stop offset="0.96" stop-color="#E988FD"/>
</radialGradient>
<radialGradient id="paint5_radial_224_3080" cx="0" cy="0" r="1" gradientUnits="userSpaceOnUse" gradientTransform="translate(121.281 38.8655) scale(128.955 128.957)">
<stop offset="0.06" stop-color="#FCE085"/>
<stop offset="0.96" stop-color="#E988FD"/>
</radialGradient>
<radialGradient id="paint6_radial_224_3080" cx="0" cy="0" r="1" gradientUnits="userSpaceOnUse" gradientTransform="translate(121.278 38.866) scale(128.961 128.957)">
<stop offset="0.06" stop-color="#FCE085"/>
<stop offset="0.96" stop-color="#E988FD"/>
</radialGradient>
<radialGradient id="paint7_radial_224_3080" cx="0" cy="0" r="1" gradientUnits="userSpaceOnUse" gradientTransform="translate(123.239 61.618) scale(151.712 151.712)">
<stop offset="0.06" stop-color="#FCE085"/>
<stop offset="0.96" stop-color="#E988FD"/>
</radialGradient>
<radialGradient id="paint8_radial_224_3080" cx="0" cy="0" r="1" gradientUnits="userSpaceOnUse" gradientTransform="translate(122.194 108.108) scale(111.523 111.523)">
<stop offset="0.06" stop-color="#FCE085"/>
<stop offset="0.96" stop-color="#E988FD"/>
</radialGradient>
<radialGradient id="paint9_radial_224_3080" cx="0" cy="0" r="1" gradientUnits="userSpaceOnUse" gradientTransform="translate(107.894 22.2788) scale(38.6219 38.6218)">
<stop offset="0.06" stop-color="#FCE085"/>
<stop offset="0.96" stop-color="#E988FD"/>
</radialGradient>
<radialGradient id="paint10_radial_224_3080" cx="0" cy="0" r="1" gradientUnits="userSpaceOnUse" gradientTransform="translate(107.895 22.2795) scale(38.6216 38.6218)">
<stop offset="0.06" stop-color="#FCE085"/>
<stop offset="0.96" stop-color="#E988FD"/>
</radialGradient>
<radialGradient id="paint11_radial_224_3080" cx="0" cy="0" r="1" gradientUnits="userSpaceOnUse" gradientTransform="translate(209.893 122.666) rotate(101.24) scale(38.6218 38.6213)">
<stop offset="0.06" stop-color="#FCE085"/>
<stop offset="0.96" stop-color="#E988FD"/>
</radialGradient>
<radialGradient id="paint12_radial_224_3080" cx="0" cy="0" r="1" gradientUnits="userSpaceOnUse" gradientTransform="translate(209.893 122.667) rotate(101.24) scale(38.6218 38.6218)">
<stop offset="0.06" stop-color="#FCE085"/>
<stop offset="0.96" stop-color="#E988FD"/>
</radialGradient>
<radialGradient id="paint13_radial_224_3080" cx="0" cy="0" r="1" gradientUnits="userSpaceOnUse" gradientTransform="translate(133.449 193.365) rotate(176.44) scale(38.6215 38.6218)">
<stop offset="0.06" stop-color="#FCE085"/>
<stop offset="0.96" stop-color="#E988FD"/>
</radialGradient>
<radialGradient id="paint14_radial_224_3080" cx="0" cy="0" r="1" gradientUnits="userSpaceOnUse" gradientTransform="translate(133.449 193.365) rotate(176.44) scale(38.6215 38.6218)">
<stop offset="0.06" stop-color="#FCE085"/>
<stop offset="0.96" stop-color="#E988FD"/>
</radialGradient>
<radialGradient id="paint15_radial_224_3080" cx="0" cy="0" r="1" gradientUnits="userSpaceOnUse" gradientTransform="translate(71.4988 181.243) rotate(-145.993) scale(46.3844 81.8448)">
<stop offset="0.06" stop-color="#FCE085"/>
<stop offset="0.96" stop-color="#E988FD"/>
</radialGradient>
<radialGradient id="paint16_radial_224_3080" cx="0" cy="0" r="1" gradientUnits="userSpaceOnUse" gradientTransform="translate(78.4793 98.4453) scale(58.9609 58.9611)">
<stop offset="0.06" stop-color="#FCE085"/>
<stop offset="0.96" stop-color="#E988FD"/>
</radialGradient>
<radialGradient id="paint17_radial_224_3080" cx="0" cy="0" r="1" gradientUnits="userSpaceOnUse" gradientTransform="translate(109.237 36.2084) rotate(13.3394) scale(29.7142 52.7044)">
<stop offset="0.06" stop-color="#FCE085"/>
<stop offset="0.96" stop-color="#E988FD"/>
</radialGradient>
<radialGradient id="paint18_radial_224_3080" cx="0" cy="0" r="1" gradientUnits="userSpaceOnUse" gradientTransform="translate(134.919 95.1749) rotate(159.71) scale(37.9362 37.9362)">
<stop offset="0.06" stop-color="#FCE085"/>
<stop offset="0.96" stop-color="#E988FD"/>
</radialGradient>
<radialGradient id="paint19_radial_224_3080" cx="0" cy="0" r="1" gradientUnits="userSpaceOnUse" gradientTransform="translate(182.247 157.725) rotate(141.072) scale(37.5128 66.2044)">
<stop offset="0.06" stop-color="#FCE085"/>
<stop offset="0.96" stop-color="#E988FD"/>
</radialGradient>
<radialGradient id="paint20_radial_224_3080" cx="0" cy="0" r="1" gradientUnits="userSpaceOnUse" gradientTransform="translate(117.029 135.342) rotate(-72.9099) scale(47.6325 47.6327)">
<stop offset="0.06" stop-color="#FCE085"/>
<stop offset="0.96" stop-color="#E988FD"/>
</radialGradient>
<radialGradient id="paint21_radial_224_3080" cx="0" cy="0" r="1" gradientUnits="userSpaceOnUse" gradientTransform="translate(46.4733 71.3491) rotate(-53.7895) scale(30.4601 30.4603)">
<stop offset="0.06" stop-color="#FCE085"/>
<stop offset="0.96" stop-color="#E988FD"/>
</radialGradient>
<radialGradient id="paint22_radial_224_3080" cx="0" cy="0" r="1" gradientUnits="userSpaceOnUse" gradientTransform="translate(46.4926 71.3218) rotate(-53.7898) scale(30.46 30.4601)">
<stop offset="0.06" stop-color="#FCE085"/>
<stop offset="0.96" stop-color="#E988FD"/>
</radialGradient>
<radialGradient id="paint23_radial_224_3080" cx="0" cy="0" r="1" gradientUnits="userSpaceOnUse" gradientTransform="translate(30.6171 164.399) rotate(-120.669) scale(38.6159 38.6158)">
<stop offset="0.06" stop-color="#FCE085"/>
<stop offset="0.96" stop-color="#E988FD"/>
</radialGradient>
<radialGradient id="paint24_radial_224_3080" cx="0" cy="0" r="1" gradientUnits="userSpaceOnUse" gradientTransform="translate(30.6168 164.401) rotate(-120.669) scale(38.616 38.6162)">
<stop offset="0.06" stop-color="#FCE085"/>
<stop offset="0.96" stop-color="#E988FD"/>
</radialGradient>
<radialGradient id="paint25_radial_224_3080" cx="0" cy="0" r="1" gradientUnits="userSpaceOnUse" gradientTransform="translate(155.194 36.3573) rotate(29.94) scale(21.8737 21.8737)">
<stop offset="0.06" stop-color="#FCE085"/>
<stop offset="0.96" stop-color="#E988FD"/>
</radialGradient>
<radialGradient id="paint26_radial_224_3080" cx="0" cy="0" r="1" gradientUnits="userSpaceOnUse" gradientTransform="translate(155.194 36.3572) rotate(29.9399) scale(21.8738 21.8737)">
<stop offset="0.06" stop-color="#FCE085"/>
<stop offset="0.96" stop-color="#E988FD"/>
</radialGradient>
<radialGradient id="paint27_radial_224_3080" cx="0" cy="0" r="1" gradientUnits="userSpaceOnUse" gradientTransform="translate(148.438 199.235) rotate(165.92) scale(21.8736 21.8737)">
<stop offset="0.06" stop-color="#FCE085"/>
<stop offset="0.96" stop-color="#E988FD"/>
</radialGradient>
<radialGradient id="paint28_radial_224_3080" cx="0" cy="0" r="1" gradientUnits="userSpaceOnUse" gradientTransform="translate(148.437 199.235) rotate(165.92) scale(21.8738 21.8737)">
<stop offset="0.06" stop-color="#FCE085"/>
<stop offset="0.96" stop-color="#E988FD"/>
</radialGradient>
<radialGradient id="paint29_radial_224_3080" cx="0" cy="0" r="1" gradientUnits="userSpaceOnUse" gradientTransform="translate(26.6225 126.448) rotate(-92.8399) scale(21.8737 21.8732)">
<stop offset="0.06" stop-color="#FCE085"/>
<stop offset="0.96" stop-color="#E988FD"/>
</radialGradient>
<radialGradient id="paint30_radial_224_3080" cx="0" cy="0" r="1" gradientUnits="userSpaceOnUse" gradientTransform="translate(26.6224 126.45) rotate(-92.84) scale(21.8737 21.8734)">
<stop offset="0.06" stop-color="#FCE085"/>
<stop offset="0.96" stop-color="#E988FD"/>
</radialGradient>
<radialGradient id="paint31_radial_224_3080" cx="0" cy="0" r="1" gradientUnits="userSpaceOnUse" gradientTransform="translate(102.803 204.677) rotate(-166.86) scale(21.8737 21.8737)">
<stop offset="0.06" stop-color="#FCE085"/>
<stop offset="0.96" stop-color="#E988FD"/>
</radialGradient>
<radialGradient id="paint32_radial_224_3080" cx="0" cy="0" r="1" gradientUnits="userSpaceOnUse" gradientTransform="translate(102.803 204.678) rotate(-166.86) scale(21.8737 21.8737)">
<stop offset="0.06" stop-color="#FCE085"/>
<stop offset="0.96" stop-color="#E988FD"/>
</radialGradient>
<radialGradient id="paint33_radial_224_3080" cx="0" cy="0" r="1" gradientUnits="userSpaceOnUse" gradientTransform="translate(200.272 91.5945) rotate(69.1096) scale(16.7808 16.7811)">
<stop offset="0.06" stop-color="#FCE085"/>
<stop offset="0.96" stop-color="#E988FD"/>
</radialGradient>
<radialGradient id="paint34_radial_224_3080" cx="0" cy="0" r="1" gradientUnits="userSpaceOnUse" gradientTransform="translate(200.271 91.5928) rotate(69.1101) scale(16.7807 16.7806)">
<stop offset="0.06" stop-color="#FCE085"/>
<stop offset="0.96" stop-color="#E988FD"/>
</radialGradient>
<radialGradient id="paint35_radial_224_3080" cx="0" cy="0" r="1" gradientUnits="userSpaceOnUse" gradientTransform="translate(191.53 164.89) rotate(129.732) scale(16.8015 16.8014)">
<stop offset="0.06" stop-color="#FCE085"/>
<stop offset="0.96" stop-color="#E988FD"/>
</radialGradient>
<radialGradient id="paint36_radial_224_3080" cx="0" cy="0" r="1" gradientUnits="userSpaceOnUse" gradientTransform="translate(191.53 164.888) rotate(129.732) scale(16.8016 16.8015)">
<stop offset="0.06" stop-color="#FCE085"/>
<stop offset="0.96" stop-color="#E988FD"/>
</radialGradient>
<radialGradient id="paint37_radial_224_3080" cx="0" cy="0" r="1" gradientUnits="userSpaceOnUse" gradientTransform="translate(42.6186 135.712) rotate(-108.072) scale(11.4185 11.4184)">
<stop offset="0.06" stop-color="#FCE085"/>
<stop offset="0.96" stop-color="#E988FD"/>
</radialGradient>
<radialGradient id="paint38_radial_224_3080" cx="0" cy="0" r="1" gradientUnits="userSpaceOnUse" gradientTransform="translate(42.6185 135.71) rotate(-108.073) scale(11.4186 11.4187)">
<stop offset="0.06" stop-color="#FCE085"/>
<stop offset="0.96" stop-color="#E988FD"/>
</radialGradient>
<radialGradient id="paint39_radial_224_3080" cx="0" cy="0" r="1" gradientUnits="userSpaceOnUse" gradientTransform="translate(101.861 99.5461) rotate(-32.7352) scale(11.4106 19.9033)">
<stop offset="0.06" stop-color="#FCE085"/>
<stop offset="0.96" stop-color="#E988FD"/>
</radialGradient>
<radialGradient id="paint40_radial_224_3080" cx="0" cy="0" r="1" gradientUnits="userSpaceOnUse" gradientTransform="translate(101.861 99.5451) rotate(-32.7347) scale(11.4107 19.9034)">
<stop offset="0.06" stop-color="#FCE085"/>
<stop offset="0.96" stop-color="#E988FD"/>
</radialGradient>
<radialGradient id="paint41_radial_224_3080" cx="0" cy="0" r="1" gradientUnits="userSpaceOnUse" gradientTransform="translate(138.882 49.6622) rotate(21.6801) scale(11.4265 11.4266)">
<stop offset="0.06" stop-color="#FCE085"/>
<stop offset="0.96" stop-color="#E988FD"/>
</radialGradient>
<radialGradient id="paint42_radial_224_3080" cx="0" cy="0" r="1" gradientUnits="userSpaceOnUse" gradientTransform="translate(138.882 49.6623) rotate(21.6797) scale(11.4267 11.4266)">
<stop offset="0.06" stop-color="#FCE085"/>
<stop offset="0.96" stop-color="#E988FD"/>
</radialGradient>
<radialGradient id="paint43_radial_224_3080" cx="0" cy="0" r="1" gradientUnits="userSpaceOnUse" gradientTransform="translate(180.131 119.996) rotate(106.809) scale(9.13453 14.9277)">
<stop offset="0.06" stop-color="#FCE085"/>
<stop offset="0.96" stop-color="#E988FD"/>
</radialGradient>
<radialGradient id="paint44_radial_224_3080" cx="0" cy="0" r="1" gradientUnits="userSpaceOnUse" gradientTransform="translate(180.13 119.995) rotate(106.809) scale(9.13452 14.9274)">
<stop offset="0.06" stop-color="#FCE085"/>
<stop offset="0.96" stop-color="#E988FD"/>
</radialGradient>
<radialGradient id="paint45_radial_224_3080" cx="0" cy="0" r="1" gradientUnits="userSpaceOnUse" gradientTransform="translate(53.7033 47.0692) rotate(-38.5401) scale(21.8737 21.8737)">
<stop offset="0.06" stop-color="#FCE085"/>
<stop offset="0.96" stop-color="#E988FD"/>
</radialGradient>
<radialGradient id="paint46_radial_224_3080" cx="0" cy="0" r="1" gradientUnits="userSpaceOnUse" gradientTransform="translate(53.7036 47.0698) rotate(-38.54) scale(21.8737 21.8737)">
<stop offset="0.06" stop-color="#FCE085"/>
<stop offset="0.96" stop-color="#E988FD"/>
</radialGradient>
<radialGradient id="paint47_radial_224_3080" cx="0" cy="0" r="1" gradientUnits="userSpaceOnUse" gradientTransform="translate(136.51 122.407) rotate(-29.8869) scale(50.8425 41.9811)">
<stop offset="0.06" stop-color="#FCE085"/>
<stop offset="0.96" stop-color="#E988FD"/>
</radialGradient>
<radialGradient id="paint48_radial_224_3080" cx="0" cy="0" r="1" gradientUnits="userSpaceOnUse" gradientTransform="translate(136.509 122.407) rotate(-29.8859) scale(50.8441 41.9816)">
<stop offset="0.06" stop-color="#FCE085"/>
<stop offset="0.96" stop-color="#E988FD"/>
</radialGradient>
<radialGradient id="paint49_radial_224_3080" cx="0" cy="0" r="1" gradientUnits="userSpaceOnUse" gradientTransform="translate(89.1489 134.696) rotate(63.1781) scale(56.3597 46.7548)">
<stop offset="0.06" stop-color="#FCE085"/>
<stop offset="0.96" stop-color="#E988FD"/>
</radialGradient>
<radialGradient id="paint50_radial_224_3080" cx="0" cy="0" r="1" gradientUnits="userSpaceOnUse" gradientTransform="translate(81.9597 149.212) rotate(63.1783) scale(34.0567 28.2525)">
<stop offset="0.06" stop-color="#FCE085"/>
<stop offset="0.96" stop-color="#E988FD"/>
</radialGradient>
<radialGradient id="paint51_radial_224_3080" cx="0" cy="0" r="1" gradientUnits="userSpaceOnUse" gradientTransform="translate(75.7799 114.277) rotate(83.0891) scale(27.7389 23.2528)">
<stop offset="0.06" stop-color="#FCE085"/>
<stop offset="0.96" stop-color="#E988FD"/>
</radialGradient>
<radialGradient id="paint52_radial_224_3080" cx="0" cy="0" r="1" gradientUnits="userSpaceOnUse" gradientTransform="translate(224.968 89.4172) rotate(83.089) scale(40.3712 33.8423)">
<stop offset="0.06" stop-color="#FCE085"/>
<stop offset="0.96" stop-color="#E988FD"/>
</radialGradient>
<radialGradient id="paint53_radial_224_3080" cx="0" cy="0" r="1" gradientUnits="userSpaceOnUse" gradientTransform="translate(214.74 98.9134) rotate(83.0885) scale(26.4366 22.163)">
<stop offset="0.06" stop-color="#FCE085"/>
<stop offset="0.96" stop-color="#E988FD"/>
</radialGradient>
<radialGradient id="paint54_radial_224_3080" cx="0" cy="0" r="1" gradientUnits="userSpaceOnUse" gradientTransform="translate(92.6128 147.458) rotate(38.4803) scale(50.4858 42.1766)">
<stop offset="0.06" stop-color="#FCE085"/>
<stop offset="0.96" stop-color="#E988FD"/>
</radialGradient>
<radialGradient id="paint55_radial_224_3080" cx="0" cy="0" r="1" gradientUnits="userSpaceOnUse" gradientTransform="translate(92.6129 147.458) rotate(38.4796) scale(50.4865 42.1769)">
<stop offset="0.06" stop-color="#FCE085"/>
<stop offset="0.96" stop-color="#E988FD"/>
</radialGradient>
<radialGradient id="paint56_radial_224_3080" cx="0" cy="0" r="1" gradientUnits="userSpaceOnUse" gradientTransform="translate(78.3783 136.349) rotate(38.4795) scale(50.4868 42.1772)">
<stop offset="0.06" stop-color="#FCE085"/>
<stop offset="0.96" stop-color="#E988FD"/>
</radialGradient>
<radialGradient id="paint57_radial_224_3080" cx="0" cy="0" r="1" gradientUnits="userSpaceOnUse" gradientTransform="translate(105.25 6.18378) scale(147.239 147.239)">
<stop offset="0.06" stop-color="#FCE085"/>
<stop offset="0.96" stop-color="#E988FD"/>
</radialGradient>
</defs>
</svg>
