<svg width="250" height="250" viewBox="0 0 250 250" fill="none" xmlns="http://www.w3.org/2000/svg">
<path d="M132.573 242.427C197.426 238.245 246.609 182.28 242.427 117.427C238.244 52.5742 182.28 3.39091 117.427 7.57341C52.5738 11.7559 3.39058 67.7203 7.57308 132.573C11.7556 197.427 67.72 246.61 132.573 242.427Z" fill="url(#paint0_radial_224_3201)"/>
<path d="M150.303 224.553C205.258 210.596 238.494 154.732 224.537 99.7766C210.58 44.8213 154.716 11.5854 99.7603 25.5423C44.8049 39.4992 11.5692 95.3636 25.5261 150.319C39.4829 205.274 95.3472 238.51 150.303 224.553Z" fill="url(#paint1_radial_224_3201)"/>
<path style="mix-blend-mode:screen" d="M157.153 179.609C154.929 180.266 153.738 180.517 155.368 183.368C156.997 186.219 161.038 187.409 165.424 188.537C170.162 189.512 174.971 190.099 179.804 190.292L202.643 191.921C202.142 192.485 201.578 193.049 201.076 193.644L179.679 193.111C174.667 193.084 169.667 192.622 164.735 191.733C162.392 191.286 160.103 190.592 157.905 189.665C155.689 188.833 153.763 187.374 152.36 185.467C151.547 184.523 151.047 183.35 150.929 182.11C150.811 180.87 151.081 179.624 151.702 178.543C152.8 177.14 154.369 176.183 156.119 175.849C158.312 175.223 159.597 174.972 159.597 174.972C163.812 174.162 168.088 173.712 172.379 173.625C180.055 173.374 190.017 173.844 199.98 173.218C205.588 172.936 211.101 172.403 216.239 171.776C215.832 172.591 215.425 173.406 214.986 174.189C210.287 174.941 205.243 175.598 200.199 176.037C190.111 177.04 179.929 176.852 172.536 177.29C168.457 177.469 164.401 177.993 160.411 178.857C160.411 178.857 159.252 178.951 157.153 179.609ZM101.2 28.5726C108.598 33.8299 115.166 40.1659 120.687 47.3698C123.663 51.2233 126.389 55.484 129.615 59.0868C132.524 62.5925 136.245 65.3349 140.455 67.0756C143.432 68.1462 146.523 68.8715 149.666 69.2373L153.143 69.5819C157.311 69.9433 161.498 70.0061 165.675 69.7699C174.941 69.2843 184.109 67.6317 192.962 64.8513C196.931 63.5756 200.823 62.0692 204.617 60.3399C204.115 59.7134 203.52 59.1808 203.019 58.5855C199.496 59.9934 195.898 61.2066 192.242 62.2197C183.561 64.6293 174.618 65.9655 165.612 66.1984C161.533 66.3175 157.451 66.1605 153.394 65.7285L150.042 65.4465C147.184 65.2128 144.365 64.6342 141.646 63.7234C137.948 62.2064 134.67 59.8207 132.09 56.7685C128.957 53.4789 126.138 49.3749 122.911 45.4901C117.002 38.3392 109.965 32.2015 102.077 27.3194C100.981 26.6302 100.01 26.1289 98.9444 25.565L97.2214 25.9723L101.2 28.5726ZM49.2257 151.256C51.0741 151.601 52.3585 151.757 52.3585 151.757C53.5535 151.837 54.7532 151.699 55.8987 151.35C56.739 151.105 57.5 150.643 58.105 150.011C58.71 149.378 59.1377 148.598 59.345 147.747C59.6005 145.974 59.3281 144.166 58.5618 142.547C55.2901 135.306 49.9062 129.223 43.1165 125.097C36.1302 120.429 28.8306 116.763 23.912 113.098L23.2542 112.628C23.2542 113.192 23.0662 113.787 23.0035 114.351C27.7655 118.455 35.0025 122.622 41.4876 127.384C47.5662 131.387 52.3113 137.114 55.1155 143.831C55.5863 144.804 55.771 145.89 55.648 146.964C55.648 147.434 55.2408 147.559 54.7082 147.747C54.0233 147.856 53.3255 147.856 52.6406 147.747L50.0403 147.371C47.7134 147.037 45.4392 146.405 43.2733 145.492C36.518 142.483 30.2632 138.457 24.7265 133.555L22.7842 131.958C22.7842 133.273 22.9721 134.589 23.1288 135.874C28.6606 141.191 35.0063 145.591 41.926 148.906C44.2538 149.986 46.7054 150.775 49.2257 151.256ZM160.599 29.5751C158.312 30.0137 156.997 30.8596 157.091 31.0789C157.185 31.2982 163.043 30.2017 167.899 32.9899C170.073 34.0844 171.969 35.6593 173.444 37.5952C173.695 37.9085 174.04 38.5038 174.071 38.5351C174.071 38.5351 174.071 38.5351 173.413 38.5351C171.018 38.4906 168.635 38.1966 166.301 37.6579C161.195 36.5301 156.903 33.7105 156.464 34.1177C158.777 37.0277 161.926 39.1596 165.487 40.2269C167.967 41.1668 170.557 41.7879 173.194 42.0753C173.945 42.1204 174.698 42.1204 175.449 42.0753H180.274L179.366 40.0076C179.366 40.0076 179.083 39.3497 178.488 38.2845C178.206 37.7519 177.924 37.1253 177.486 36.4361C172.69 33.5731 167.672 31.1006 162.479 29.0425C161.842 29.1807 161.214 29.3586 160.599 29.5751ZM151.984 223.813C145.47 219.755 139.519 214.857 134.283 209.246C128.455 202.957 122.011 197.268 115.047 192.265C111.8 190.007 108.362 188.036 104.772 186.376C101.193 184.732 97.4834 183.39 93.6812 182.366C85.3433 180.013 76.6728 179.06 68.0229 179.546C59.6324 180.389 51.2047 180.807 42.772 180.799C41.2995 180.799 39.9524 180.611 38.6993 180.454L39.6391 181.833C40.6103 182.021 41.5188 182.209 42.772 182.366C51.2532 182.915 59.761 182.915 68.2423 182.366C76.5449 182.236 84.815 183.431 92.7414 185.906C99.9004 188.213 106.758 191.369 113.168 195.304C120.092 200.007 126.554 205.357 132.466 211.282C137.624 216.333 143.366 220.751 149.572 224.44C150.292 224.315 151.138 224.158 151.984 223.907V223.813ZM74.5394 193.613C74.5394 193.613 73.5681 193.174 71.7511 193.111C69.2157 193.039 66.6886 193.432 64.2948 194.27C63.3549 194.709 59.4701 195.461 60.9426 198.312C62.1545 200.089 63.95 201.386 66.0178 201.977L76.9518 206.771L97.6287 215.731C100.417 216.952 102.892 217.924 104.678 218.488C105.622 218.797 106.585 219.048 107.56 219.239C108.301 219.418 109.055 219.533 109.816 219.584C111.087 219.706 112.366 219.706 113.638 219.584C114.582 219.466 115.515 219.267 116.426 218.989C117.253 218.782 118.015 218.37 118.64 217.789C119.264 217.208 119.731 216.478 119.997 215.668C120.118 215.047 120.099 214.408 119.942 213.796C119.785 213.183 119.493 212.614 119.089 212.128C118.369 211.254 117.512 210.502 116.551 209.904C109.401 204.886 101.297 201.389 92.7414 199.628C87.3071 198.482 81.7392 198.102 76.1997 198.5C73.7774 198.535 71.3766 198.958 69.0882 199.753C76.8496 199.51 84.6098 200.268 92.1775 202.009C97.9157 203.482 103.412 205.771 108.5 208.807C112.886 211.282 117.303 215.073 116.269 214.759C115.33 215.356 114.248 215.691 113.136 215.731C112.148 215.845 111.149 215.845 110.16 215.731C109.538 215.683 108.92 215.589 108.312 215.449C105.084 214.715 101.936 213.666 98.9131 212.316L78.0482 204.233L66.8951 199.972C66.048 199.696 65.2211 199.361 64.4202 198.97C63.8263 198.706 63.3008 198.31 62.885 197.811C62.1644 196.745 63.4803 196.526 64.8901 195.774C67.9862 194.611 71.2382 193.914 74.5394 193.707V193.613ZM33.1854 152.259C45.6398 158.543 59.5081 161.501 73.4429 160.843C76.2837 160.78 79.063 160.005 81.5256 158.587C83.5589 157.335 85.1142 155.438 85.9431 153.198C86.454 151.812 86.7394 150.352 86.7888 148.875C86.8229 148.364 86.8229 147.851 86.7888 147.34C86.7456 146.835 86.6723 146.333 86.5695 145.836C86.3213 144.42 85.8674 143.048 85.2224 141.763C82.9416 137.586 79.7248 133.994 75.8238 131.268C64.7703 123.222 53.2642 115.816 41.3621 109.088C35.9109 105.955 30.679 102.258 25.6977 98.655C25.4784 99.4696 25.2905 100.284 25.1025 101.099C29.7078 104.701 34.5012 108.21 39.7332 111.468C51.3322 118.413 62.5436 125.985 73.3175 134.151C76.7726 136.592 79.6057 139.812 81.5883 143.549C82.2458 144.856 82.6194 146.286 82.6848 147.747C82.8636 149.154 82.7025 150.583 82.215 151.914C81.4944 154.483 78.4554 156.989 73.0668 157.302C59.7327 158.139 46.4054 155.562 34.3445 149.815C30.6945 148.144 27.2118 146.13 23.9433 143.8C24.1626 145.022 24.5387 146.212 24.8206 147.434C27.4685 149.301 30.2662 150.947 33.1854 152.353V152.259ZM127.172 23.3093C127.422 22.8707 127.642 22.5888 127.861 22.2441C129.741 22.2441 131.62 22.2441 133.469 22.5574L132.278 23.3093C131.659 23.7269 131.136 24.2716 130.743 24.9071C130.524 25.377 130.43 25.7216 130.963 26.8808C131.495 28.04 132.372 29.4498 133.281 30.8909C138.001 38.023 144.776 43.5528 152.709 46.7474C160.643 49.942 169.36 50.6507 177.705 48.7796C181.527 47.7952 185.284 46.5709 188.952 45.1142C188.952 45.1142 188.952 45.1141 188.952 45.3021C188.952 45.4901 189.203 45.1455 189.328 44.9888C189.453 44.8322 189.328 44.9888 189.328 44.9888L189.986 45.4588C189.986 45.4588 189.986 45.6467 189.767 45.7094C189.424 46.058 189.005 46.3217 188.543 46.4794C188.081 46.6372 187.588 46.6846 187.104 46.6179L186.227 47.1192C183.686 48.5612 180.983 49.697 178.175 50.5027C169.444 52.9431 160.169 52.6036 151.639 49.5315C143.059 46.34 135.636 40.6421 130.336 33.1779C129.302 31.6114 128.425 30.2016 127.642 28.7605C127.171 27.9569 126.892 27.0552 126.826 26.1259C126.761 25.1967 126.911 24.2649 127.266 23.4033L127.172 23.3093ZM188.482 45.7407L188.231 45.8974L188.482 45.7407ZM190.08 74.7198C186.947 74.7198 184.065 74.7198 181.057 74.9078C177.811 74.9596 174.668 76.0585 172.097 78.0407C170.109 80.1649 168.786 82.8241 168.291 85.6909C167.795 88.5577 168.149 91.5069 169.309 94.175C171.289 99.2051 174.795 103.489 179.334 106.425C183.807 109.151 188.783 110.951 193.965 111.719C204.84 113.358 215.868 113.726 226.828 112.816C226.828 111.876 226.578 110.936 226.453 109.996C215.816 110.549 205.151 109.918 194.654 108.116C189.974 107.351 185.499 105.646 181.496 103.104C180.397 102.419 179.35 101.654 178.363 100.817C175.922 98.6057 174.024 95.8611 172.818 92.7965C171.843 90.779 171.473 88.5228 171.751 86.2995C172.028 84.0762 172.943 81.9806 174.384 80.265C177.799 77.1322 184.441 77.6334 190.049 77.3828C198.569 77.6362 207.097 77.3536 215.582 76.5369C215.237 75.9103 214.83 75.3151 214.485 74.7198C207.279 75.5657 198.695 74.9705 190.08 74.7198ZM202.611 88.8491L212.731 87.9406L220.406 87.1574C220.124 86.4055 219.748 85.6536 219.404 84.9017L212.511 85.121L202.329 85.5596C200.646 85.5508 198.966 85.7188 197.317 86.0609C196.28 86.3049 195.341 86.8578 194.625 87.6465C193.909 88.4352 193.45 89.4226 193.307 90.4782C193.24 91.9442 193.649 93.3925 194.474 94.6065C195.298 95.8206 196.493 96.7353 197.881 97.2139C198.781 97.5775 199.732 97.7995 200.7 97.8718C201.577 97.9311 202.456 97.9311 203.332 97.8718L209.598 97.4645C213.482 97.2139 218.37 96.8066 223.476 96.274C223.194 95.2715 222.787 94.269 222.443 93.1412C217.649 93.3918 213.044 93.5798 209.41 93.6737L203.144 93.8617C202.435 93.9252 201.722 93.9252 201.014 93.8617C201.233 93.8617 197.192 94.0497 196.91 90.7288C196.91 90.1963 197.191 89.7263 198.257 89.3504C199.707 89.0255 201.188 88.8575 202.674 88.8491H202.611ZM197.129 160.686C181.809 162.628 166.458 160.686 154.647 160.686C149.838 160.547 145.026 160.83 140.267 161.532C138.403 161.818 136.569 162.269 134.785 162.879C132.94 163.472 131.181 164.304 129.553 165.354C127.301 166.73 125.378 168.581 123.916 170.778C122.455 172.975 121.492 175.465 121.094 178.073C120.725 181.691 121.782 185.31 124.039 188.161C126.439 191.067 129.457 193.4 132.874 194.991C139.969 197.962 147.306 200.321 154.804 202.04C164.956 204.527 175.251 206.389 185.631 207.617C186.383 207.084 187.135 206.551 187.855 205.987C176.951 204.435 166.153 202.207 155.524 199.314C148.252 197.495 141.146 195.063 134.283 192.046C131.354 190.636 128.775 188.592 126.733 186.062C125.079 183.903 124.337 181.181 124.665 178.481C125.034 176.448 125.838 174.519 127.022 172.827C128.206 171.134 129.743 169.718 131.526 168.675C132.919 167.814 134.413 167.13 135.975 166.638C137.556 166.077 139.18 165.648 140.831 165.354C145.359 164.64 149.938 164.305 154.522 164.351C165.957 164.351 181.778 165.981 197.38 163.631C205.703 162.537 213.913 160.703 221.91 158.148C222.223 157.302 222.568 156.457 222.819 155.611C214.451 158.088 205.872 159.787 197.192 160.686H197.129ZM78.8314 65.3839C80.7542 65.4875 82.6791 65.2216 84.5019 64.6006C85.2184 64.3642 85.9107 64.06 86.5695 63.6921C87.2858 63.3007 87.9319 62.7925 88.4807 62.1883C89.1724 61.4833 89.7249 60.6543 90.1097 59.7447C90.4039 59.0438 90.537 58.2859 90.499 57.5267C90.461 56.7676 90.2532 56.0267 89.8905 55.3587C89.1075 54.1717 88.0274 53.2104 86.7577 52.5704C85.7238 51.9438 84.5958 51.3172 83.4366 50.6593C81.087 49.3749 78.5495 48.0904 75.9492 46.9625C72.0586 45.2001 68.0362 43.7441 63.9189 42.6078L62.1645 43.8923C66.4598 45.4856 70.6459 47.3589 74.696 49.5002C77.1396 50.7533 79.5206 52.1318 81.7136 53.4789C83.9066 54.8261 86.3816 56.3612 86.6636 57.1444C86.9456 57.9276 86.3817 58.8361 85.7238 59.4314C85.3862 59.7525 85.0069 60.0265 84.596 60.2459C82.8841 61.2929 80.8989 61.8056 78.8941 61.7184C73.9876 61.3624 69.1879 60.1094 64.7335 58.0216C60.1595 56.2672 55.7734 54.2621 52.2019 52.6017C51.7633 53.009 51.4187 53.4789 51.0114 53.8862C55.0664 56.3518 59.2494 58.6002 63.5429 60.6219C68.2833 63.1827 73.4753 64.7999 78.8314 65.3839ZM84.126 39.287C92.2401 44.5502 100.166 50.0641 106.056 54.2935C109.189 56.3925 110.035 57.9903 109.847 59.5567C109.785 60.3838 109.538 61.1865 109.126 61.9064C108.758 62.7086 108.224 63.4239 107.56 64.0054C105.526 65.6498 103.095 66.7303 100.511 67.1383C91.8959 68.8584 83.1602 69.9058 74.3828 70.2712C65.6391 70.5997 56.9225 69.1061 48.787 65.8851C46.8882 65.0933 45.0461 64.1722 43.2733 63.1282C43.054 63.3788 42.866 63.6608 42.6467 63.9427C44.3824 65.2038 46.2157 66.3247 48.1292 67.2949C56.3439 71.1416 65.3122 73.1108 74.3828 73.0594C83.3721 73.033 92.3432 72.247 101.2 70.7098C104.475 70.2825 107.573 68.9721 110.16 66.919C111.191 66.0472 112.042 64.9832 112.666 63.7861C113.346 62.5689 113.713 61.2015 113.732 59.8073C113.845 58.0927 113.37 56.3908 112.385 54.9827C111.206 53.5169 109.773 52.2753 108.155 51.3172C102.14 47.2132 93.9631 41.9186 85.6297 36.9373C83.468 35.6529 81.3063 34.3684 79.1446 33.1466L76.5445 34.4937C78.8315 36.0288 81.4943 37.6266 84.0319 39.287H84.126ZM74.7273 114.977C84.4706 123.749 92.1462 134.683 100.636 140.824C103.997 143.365 107.755 145.334 111.758 146.651C113.259 147.142 114.786 147.549 116.332 147.873C121.89 148.898 127.536 149.37 133.187 149.282C143.149 149.282 156.433 149.032 169.685 148.248C182.937 147.465 196.158 146.212 206.026 144.959C210.945 144.301 215.049 143.706 217.931 143.236C219.444 143.069 220.935 142.744 222.38 142.265C220.864 142.159 219.342 142.212 217.837 142.421L205.87 143.393C195.97 144.176 182.78 145.053 169.56 145.46C156.339 145.867 143.118 145.836 133.249 145.46C127.852 145.449 122.468 144.903 117.178 143.831C115.746 143.568 114.334 143.213 112.948 142.766C109.311 141.64 105.882 139.925 102.798 137.691C94.9031 132.333 86.8202 121.431 76.6383 112.628C67.4646 104.538 57.4318 97.478 46.7194 91.5747C42.3334 89.1624 38.5739 87.408 35.9109 86.2175C34.5461 85.5302 33.1057 85.0045 31.6189 84.6511C32.8459 85.5573 34.1699 86.3244 35.5664 86.9381C38.0727 88.3479 41.8321 90.3216 45.9362 92.8905C56.1808 99.284 65.7626 106.683 74.5394 114.977H74.7273ZM48.6931 81.8315C60.6686 87.2234 73.7729 89.6314 86.8829 88.8491C94.0259 88.4105 100.981 87.1887 107.466 86.5308C113.29 85.8197 119.184 85.9251 124.979 86.8441C129.008 87.5712 132.933 88.7917 136.664 90.4782C138.08 91.1023 139.46 91.803 140.8 92.5772C140.8 92.5772 142.303 93.3605 144.81 94.9896C148.258 97.2692 151.415 99.9626 154.208 103.01C157.655 106.738 160.474 112.064 164.798 117.452C169.21 123.258 175.498 127.355 182.592 129.044C189.456 130.578 196.515 131.043 203.52 130.422C209.556 130.046 215.569 129.356 221.534 128.355C223.79 127.979 225.857 127.571 227.8 127.164C227.8 126.757 227.8 126.318 227.8 125.911C225.826 126.224 223.664 126.506 221.315 126.82C216.083 127.446 209.974 128.01 203.426 128.198C196.665 128.581 189.885 127.948 183.313 126.318C176.904 124.639 171.279 120.785 167.398 115.416C163.607 110.309 160.631 104.733 156.965 100.597C154.084 97.2586 150.789 94.3003 147.159 91.794C144.528 89.977 142.899 89.0997 142.899 89.0997C141.434 88.292 139.928 87.56 138.387 86.9067C134.374 85.1821 130.166 83.9512 125.856 83.2413C119.738 82.3473 113.522 82.3473 107.403 83.2413C100.762 84.0245 93.8691 85.403 86.9768 86.0295C74.2365 87.0768 61.4277 85.1351 49.5702 80.359C44.9804 78.5074 40.5486 76.2862 36.3182 73.7173L36.005 74.2186L37.7908 75.5031C41.2318 77.9289 44.8801 80.0466 48.6931 81.8315ZM137.416 117.233C134.91 116.387 134.033 116.168 132.811 115.823C130.555 115.228 129.02 114.946 128.926 115.197C128.832 115.447 130.179 116.23 132.278 117.296C133.218 117.766 134.879 118.517 135.067 118.705C135.912 118.705 135.067 119.677 134.597 119.739C133.578 120.02 132.516 120.115 131.464 120.021C130.281 119.881 129.115 119.618 127.986 119.238C126.044 118.549 124.571 117.672 124.603 117.766L120.875 116.293C120.624 116.179 120.361 116.095 120.091 116.042H119.653C119.434 116.042 118.306 115.823 118.807 115.635C119.149 115.354 119.56 115.171 119.997 115.103C121.125 114.91 122.269 114.837 123.412 114.883C125.668 114.883 127.172 115.291 127.266 114.883C127.36 114.476 125.981 113.787 123.632 113.223C122.165 112.876 120.658 112.728 119.152 112.784C116.896 112.924 114.671 113.377 112.541 114.131C108.531 114.789 112.541 115.886 113.387 116.826L119.434 119.614L123.005 121.274L124.007 121.65C124.918 122.037 125.862 122.341 126.827 122.559C128.239 122.927 129.691 123.116 131.15 123.123C133.076 123.202 134.978 122.688 136.602 121.65C137.532 120.973 138.24 120.035 138.638 118.956C139.609 117.954 138.168 117.672 137.416 117.233ZM158.657 118.267C159.412 119.845 159.612 121.631 159.225 123.336C158.839 125.042 157.888 126.567 156.527 127.665C154.208 129.471 151.451 130.628 148.538 131.018C146.144 131.446 143.728 131.739 141.301 131.895C137.662 132.098 134.012 131.962 130.399 131.488C129.028 131.342 127.668 131.111 126.326 130.798C121.416 129.742 116.665 128.047 112.197 125.754C107.664 123.438 103.451 120.542 99.6651 117.139C97.5085 115.191 95.4881 113.098 93.6185 110.873L90.9243 107.302C90.33 106.576 89.9062 105.727 89.6838 104.816C89.4615 103.905 89.4465 102.956 89.6399 102.039C89.9952 101.115 90.6228 100.32 91.4396 99.7608C92.2564 99.2013 93.2237 98.9031 94.2137 98.9057C95.8183 98.7829 97.4319 98.9528 98.9758 99.4069L105.743 101.255C107.074 101.177 108.41 101.261 109.722 101.506C112.259 101.788 115.987 102.383 120.185 103.26C130.718 105.551 141.001 108.867 150.888 113.16C153.924 114.06 156.627 115.836 158.657 118.267ZM155.994 119.802C155.023 117.985 152.203 116.857 149.728 115.604C139.999 111.162 129.905 107.567 119.559 104.858C115.267 103.73 111.695 102.916 109.189 102.352L121.25 105.673L131.401 108.618C132.729 108.928 134.012 109.401 135.223 110.027C133.867 109.992 132.521 109.792 131.213 109.432L120.906 107.208L106.401 103.762L98.1926 101.851C95.7489 101.193 92.3655 101.412 92.1775 102.916C91.9895 104.42 94.2138 106.926 95.8115 108.994C97.63 111.028 99.5875 112.933 101.67 114.695C105.362 117.811 109.436 120.443 113.794 122.528C118.037 124.57 122.521 126.065 127.14 126.976C128.4 127.289 129.676 127.529 130.963 127.697C134.321 128.202 137.718 128.401 141.113 128.292C145.154 128.01 150.794 127.916 154.396 125.159C155.205 124.558 155.798 123.712 156.086 122.746C156.374 121.781 156.342 120.748 155.994 119.802Z" fill="url(#paint2_radial_224_3201)"/>
<path style="mix-blend-mode:color-burn" opacity="0.34" d="M138.544 59.7107C126.532 44.9088 110.609 33.7726 92.5848 27.5674C80.8365 31.422 69.8905 37.3887 60.2849 45.1742C46.0699 56.6894 35.1945 71.798 28.7865 88.9329C22.3785 106.068 20.6712 124.605 23.8419 142.622C27.0125 160.639 34.9455 177.48 46.8181 191.398C58.6908 205.316 74.0708 215.804 91.363 221.774C107.134 216.561 121.403 207.593 132.94 195.642C144.476 183.691 152.936 169.115 157.591 153.17C162.245 137.225 162.955 120.387 159.659 104.106C156.363 87.8258 149.159 72.5901 138.669 59.7107H138.544Z" fill="url(#paint3_radial_224_3201)"/>
<path style="mix-blend-mode:screen" opacity="0.45" d="M184.597 62.5938C195.207 75.6254 202.33 91.1396 205.299 107.68C208.267 124.22 206.984 141.243 201.568 157.151C196.153 173.058 186.784 187.329 174.34 198.622C161.896 209.916 146.786 217.861 130.429 221.713C144.093 220.687 157.397 216.842 169.502 210.422C181.607 204.001 192.252 195.144 200.765 184.407C209.279 173.671 215.477 161.287 218.969 148.038C222.462 134.788 223.173 120.958 221.057 107.42C218.942 93.8817 214.046 80.9282 206.678 69.3752C199.311 57.8222 189.63 47.92 178.247 40.2922C166.864 32.6644 154.025 27.4762 140.538 25.0545C127.052 22.6328 113.209 23.03 99.8838 26.2211C115.894 24.9707 131.968 27.6277 146.725 33.9635C161.481 40.2993 174.478 50.1243 184.597 62.5938Z" fill="url(#paint4_radial_224_3201)"/>
<path style="mix-blend-mode:color-burn" opacity="0.34" d="M87.1016 41.1015C87.1016 41.1015 38.1034 59.3662 31.0544 115.131C24.0054 170.897 71.5937 205.296 92.0514 201.943C112.509 198.591 115.204 152.099 91.1743 127.35C67.1452 102.6 113.104 76.9417 111.068 56.0767C109.032 35.2117 94.4952 39.1592 87.1016 41.1015Z" fill="url(#paint5_radial_224_3201)"/>
<path style="mix-blend-mode:screen" opacity="0.45" d="M151.545 49.4681C157.153 47.933 191.614 43.453 210.192 93.1091C228.77 142.765 189.578 188.349 168.838 189.539C148.099 190.73 140.454 169.019 151.043 142.546C161.633 116.073 134.345 90.8534 137.102 71.8995C139.859 52.9456 145.592 51.0345 151.545 49.4681Z" fill="url(#paint6_radial_224_3201)"/>
<path style="mix-blend-mode:screen" d="M198.131 107.552C192.398 110.059 183.97 103.48 179.334 92.828C174.697 82.1762 175.606 71.5557 181.339 69.0494C187.072 66.5431 195.499 73.1535 200.136 83.7739C204.773 94.3944 203.864 105.046 198.131 107.552Z" fill="url(#paint7_radial_224_3201)"/>
<path style="mix-blend-mode:screen" d="M202.391 137.251C198.945 137.251 196.126 131.957 196.345 125.566C196.564 119.175 199.478 114.005 202.611 114.068C205.744 114.131 208.877 119.363 208.689 125.754C208.501 132.145 205.869 137.314 202.391 137.251Z" fill="url(#paint8_radial_224_3201)"/>
<defs>
<radialGradient id="paint0_radial_224_3201" cx="0" cy="0" r="1" gradientUnits="userSpaceOnUse" gradientTransform="translate(129 130.391) rotate(51.0376) scale(120.39)">
<stop stop-color="#F20074"/>
<stop offset="0.38" stop-color="#F10174" stop-opacity="0.99"/>
<stop offset="0.51" stop-color="#ED0376" stop-opacity="0.96"/>
<stop offset="0.61" stop-color="#E70679" stop-opacity="0.92"/>
<stop offset="0.69" stop-color="#DF0B7D" stop-opacity="0.85"/>
<stop offset="0.75" stop-color="#D31182" stop-opacity="0.75"/>
<stop offset="0.81" stop-color="#C51988" stop-opacity="0.64"/>
<stop offset="0.87" stop-color="#B42290" stop-opacity="0.51"/>
<stop offset="0.92" stop-color="#A02D98" stop-opacity="0.35"/>
<stop offset="0.96" stop-color="#8B39A2" stop-opacity="0.18"/>
<stop offset="1" stop-color="#7446AC" stop-opacity="0"/>
</radialGradient>
<radialGradient id="paint1_radial_224_3201" cx="0" cy="0" r="1" gradientUnits="userSpaceOnUse" gradientTransform="translate(148.151 82.5956) rotate(50.94) scale(190.886 190.886)">
<stop stop-color="#F20074"/>
<stop offset="0.14" stop-color="#ED0376"/>
<stop offset="0.31" stop-color="#DF0B7D"/>
<stop offset="0.49" stop-color="#C71887"/>
<stop offset="0.67" stop-color="#A62A96"/>
<stop offset="0.87" stop-color="#7B42A9"/>
<stop offset="0.9" stop-color="#7446AC"/>
</radialGradient>
<radialGradient id="paint2_radial_224_3201" cx="0" cy="0" r="1" gradientUnits="userSpaceOnUse" gradientTransform="translate(160.8 18.7498) rotate(50.93) scale(306.113 306.113)">
<stop stop-color="#F20074"/>
<stop offset="0.14" stop-color="#ED0376"/>
<stop offset="0.31" stop-color="#DF0B7D"/>
<stop offset="0.49" stop-color="#C71887"/>
<stop offset="0.67" stop-color="#A62A96"/>
<stop offset="0.87" stop-color="#7B42A9"/>
<stop offset="0.9" stop-color="#7446AC"/>
</radialGradient>
<radialGradient id="paint3_radial_224_3201" cx="0" cy="0" r="1" gradientUnits="userSpaceOnUse" gradientTransform="translate(108.864 92.0617) rotate(50.93) scale(146.838 146.838)">
<stop stop-color="#F20074"/>
<stop offset="0.14" stop-color="#ED0376"/>
<stop offset="0.31" stop-color="#DF0B7D"/>
<stop offset="0.49" stop-color="#C71887"/>
<stop offset="0.67" stop-color="#A62A96"/>
<stop offset="0.87" stop-color="#7B42A9"/>
<stop offset="0.9" stop-color="#7446AC"/>
</radialGradient>
<radialGradient id="paint4_radial_224_3201" cx="0" cy="0" r="1" gradientUnits="userSpaceOnUse" gradientTransform="translate(158.336 78.4928) rotate(50.93) scale(157.834 157.834)">
<stop stop-color="#F20074"/>
<stop offset="0.14" stop-color="#ED0376"/>
<stop offset="0.31" stop-color="#DF0B7D"/>
<stop offset="0.49" stop-color="#C71887"/>
<stop offset="0.67" stop-color="#A62A96"/>
<stop offset="0.87" stop-color="#7B42A9"/>
<stop offset="0.9" stop-color="#7446AC"/>
</radialGradient>
<radialGradient id="paint5_radial_224_3201" cx="0" cy="0" r="1" gradientUnits="userSpaceOnUse" gradientTransform="translate(101.605 95.2502) rotate(50.93) scale(121.838 121.838)">
<stop stop-color="#F20074"/>
<stop offset="0.14" stop-color="#ED0376"/>
<stop offset="0.31" stop-color="#DF0B7D"/>
<stop offset="0.49" stop-color="#C71887"/>
<stop offset="0.67" stop-color="#A62A96"/>
<stop offset="0.87" stop-color="#7B42A9"/>
<stop offset="0.9" stop-color="#7446AC"/>
</radialGradient>
<radialGradient id="paint6_radial_224_3201" cx="0" cy="0" r="1" gradientUnits="userSpaceOnUse" gradientTransform="translate(334.639 103.99) rotate(113.532) scale(239.992 211.338)">
<stop stop-color="#F20074"/>
<stop offset="0.14" stop-color="#ED0376"/>
<stop offset="0.31" stop-color="#DF0B7D"/>
<stop offset="0.49" stop-color="#C71887"/>
<stop offset="0.67" stop-color="#A62A96"/>
<stop offset="0.87" stop-color="#7B42A9"/>
<stop offset="0.9" stop-color="#7446AC"/>
</radialGradient>
<radialGradient id="paint7_radial_224_3201" cx="0" cy="0" r="1" gradientUnits="userSpaceOnUse" gradientTransform="translate(208.242 51.2843) rotate(66.45) scale(58.9294 58.9294)">
<stop stop-color="#F20074"/>
<stop offset="0.14" stop-color="#ED0376"/>
<stop offset="0.31" stop-color="#DF0B7D"/>
<stop offset="0.49" stop-color="#C71887"/>
<stop offset="0.67" stop-color="#A62A96"/>
<stop offset="0.87" stop-color="#7B42A9"/>
<stop offset="0.9" stop-color="#7446AC"/>
</radialGradient>
<radialGradient id="paint8_radial_224_3201" cx="0" cy="0" r="1" gradientUnits="userSpaceOnUse" gradientTransform="translate(216.665 117.935) rotate(91.1458) scale(32.5258 32.5258)">
<stop stop-color="#F20074"/>
<stop offset="0.14" stop-color="#ED0376"/>
<stop offset="0.31" stop-color="#DF0B7D"/>
<stop offset="0.49" stop-color="#C71887"/>
<stop offset="0.67" stop-color="#A62A96"/>
<stop offset="0.87" stop-color="#7B42A9"/>
<stop offset="0.9" stop-color="#7446AC"/>
</radialGradient>
</defs>
</svg>
