<svg width="235" height="235" viewBox="0 0 235 235" fill="none" xmlns="http://www.w3.org/2000/svg">
<path style="mix-blend-mode:screen" d="M58.4039 129.665C56.8351 125.863 54.8582 122.243 52.5077 118.869C49.1366 116.513 45.5161 114.536 41.7119 112.972C45.5156 111.397 49.1357 109.41 52.5077 107.048C54.8582 103.673 56.8351 100.053 58.4039 96.252C59.9728 100.053 61.9498 103.673 64.3003 107.048C67.6688 109.416 71.2896 111.403 75.0961 112.972C71.289 114.529 67.6678 116.507 64.3003 118.869C61.9498 122.243 59.9728 125.863 58.4039 129.665V129.665Z" fill="url(#paint0_radial_741_150)"/>
<path d="M219.501 132.999C228.061 76.6654 189.333 24.059 132.999 15.4991C76.6655 6.9392 24.0589 45.6673 15.4991 102.001C6.93917 158.334 45.6674 210.941 102.001 219.501C158.335 228.061 210.941 189.333 219.501 132.999Z" fill="url(#paint1_radial_741_150)"/>
<path d="M207.644 138.725C219.294 89.0547 188.472 39.3451 138.802 27.6951C89.1324 16.0451 39.4228 46.8664 27.7729 96.5363C16.1229 146.206 46.9441 195.916 96.6141 207.566C146.284 219.216 195.994 188.395 207.644 138.725Z" fill="#E0A326"/>
<g style="mix-blend-mode:screen">
<path d="M53.4483 150.773C45.3871 146.9 39.5763 137.015 37.0127 129.353C31.6006 113.117 35.8164 95.3991 42.7097 80.2452C63.9593 32.9035 122.467 28.232 137.877 41.6768C153.287 55.1216 143.574 75.4883 117.938 86.5688C92.3015 97.6494 93.9537 134.024 78.9707 145.276C73.2737 149.577 66.6653 153.024 59.2308 152.34C57.225 152.168 55.2664 151.638 53.4483 150.773V150.773Z" fill="#E0A326"/>
</g>
<g opacity="0.7">
<g style="mix-blend-mode:screen" opacity="0.7">
<path d="M47.01 115.622C41.4465 111.753 36.1021 107.579 31.0015 103.117C27.9942 121.777 31.1152 140.908 39.8968 157.645C48.6783 174.381 62.6475 187.82 79.7106 195.949C67.7359 186.548 58.4209 174.186 52.686 160.084C46.9512 145.981 44.9947 130.626 47.01 115.537V115.622Z" fill="#E0A326"/>
</g>
<g style="mix-blend-mode:screen" opacity="0.7">
<path d="M111.443 29.9668C92.8052 31.2067 75.0556 38.3874 60.7986 50.4554C46.5416 62.5233 36.5277 78.8431 32.2266 97.0199C37.2177 101.584 42.4779 105.846 47.9787 109.781C51.6251 91.9661 60.7345 75.7309 74.0392 63.335C87.3438 50.9391 104.182 42.9991 122.21 40.6201C118.91 36.7882 115.31 33.2257 111.443 29.9668V29.9668Z" fill="#E0A326"/>
</g>
<g style="mix-blend-mode:screen" opacity="0.7">
<path d="M150.096 41.5041C148.158 38.8758 146.065 36.3647 143.83 33.9841C135.223 31.216 126.237 29.8034 117.196 29.7969C120.663 33.0227 123.899 36.4874 126.881 40.1653C134.645 39.5693 142.453 40.0196 150.096 41.5041V41.5041Z" fill="#E0A326"/>
</g>
<g style="mix-blend-mode:screen" opacity="0.7">
<path d="M155.85 42.8142C161.083 44.1741 166.175 46.0243 171.061 48.3402C165.046 43.6382 158.438 39.7497 151.406 36.7754C152.973 38.7124 154.426 40.7348 155.85 42.8142Z" fill="#E0A326"/>
</g>
</g>
<g style="mix-blend-mode:multiply" opacity="0.5">
<path d="M128.163 27.6328C137.324 33.4895 145.084 41.2916 150.89 50.4849C156.696 59.6783 160.407 70.0374 161.758 80.8264C163.11 91.6154 162.069 102.57 158.71 112.911C155.351 123.253 149.756 132.728 142.322 140.663C134.889 148.599 125.799 154.8 115.699 158.827C105.598 162.853 94.7355 164.607 83.8813 163.962C73.0271 163.317 62.4479 160.291 52.8953 155.097C43.3426 149.903 35.051 142.669 28.609 133.909L28.3525 133.511C31.268 150.094 38.7395 165.54 49.9315 178.12C61.1235 190.699 75.5946 199.918 91.7262 204.743C107.858 209.568 125.014 209.811 141.275 205.443C157.537 201.075 172.263 192.27 183.805 180.011C195.348 167.752 203.253 152.524 206.636 136.03C210.019 119.535 208.746 102.425 202.96 86.6122C197.174 70.7997 187.104 56.9086 173.874 46.4926C160.645 36.0767 144.778 29.5466 128.049 27.6328H128.163Z" fill="#E0A326"/>
</g>
<g style="mix-blend-mode:multiply" opacity="0.5">
<path d="M178.667 55.1777L178.895 55.4911C208.719 95.5121 201.398 151.399 162.545 180.34C126.597 207.115 76.2645 201.418 45.3301 168.689C75.1821 208.426 130.642 217.284 169.381 188.429C208.12 159.574 215.526 103.573 185.703 63.5523C183.527 60.6224 181.178 57.8259 178.667 55.1777Z" fill="#E0A326"/>
</g>
<g style="mix-blend-mode:multiply" opacity="0.5">
<path d="M92.7569 39.5678C96.1751 44.1539 91.1333 53.8102 81.363 60.8174C71.5927 67.8247 61.1959 70.1035 57.7777 65.5175C54.3596 60.9314 59.4298 51.446 69.1716 44.2678C78.9134 37.0897 89.3672 35.0103 92.7569 39.5678Z" fill="#E0A326"/>
</g>
<g style="mix-blend-mode:multiply" opacity="0.5">
<path d="M62.0213 67.7681C66.8922 68.6226 74.4408 66.0875 81.505 60.8178C89.3383 55.1208 94.1237 47.6294 93.8104 42.616C88.9395 41.7615 81.3625 44.2966 74.3268 49.5663C66.4935 55.3772 61.708 62.7832 62.0213 67.7681Z" fill="#E0A326"/>
</g>
<g style="mix-blend-mode:multiply" opacity="0.5">
<path d="M198.948 104C193.792 106.45 185.446 99.6417 180.291 88.8175C175.135 77.9933 175.135 67.2261 180.291 64.7764C185.446 62.3267 193.792 69.1346 198.948 79.9588C204.104 90.783 204.161 101.55 198.948 104Z" fill="#E0A326"/>
</g>
<g style="mix-blend-mode:multiply" opacity="0.5">
<path d="M177.328 68.3379C175.562 72.9524 176.587 80.8712 180.347 88.8184C184.535 97.6202 190.858 103.773 195.815 104.428C197.581 99.8135 196.584 91.8948 192.795 83.9475C188.608 75.1457 182.313 69.0215 177.328 68.3379Z" fill="#E0A326"/>
</g>
<g style="mix-blend-mode:multiply" opacity="0.5">
<path d="M143.288 178.858C139.614 174.5 144.057 164.615 153.201 156.953C162.344 149.291 172.77 146.442 176.444 150.8C180.119 155.158 175.675 165.043 166.532 172.705C157.388 180.368 146.963 183.074 143.288 178.858Z" fill="#E0A326"/>
</g>
<g style="mix-blend-mode:multiply" opacity="0.5">
<path d="M172.229 148.664C167.301 148.123 159.924 151.114 153.201 156.811C145.767 163.106 141.437 170.768 142.064 175.753C146.963 176.294 154.369 173.303 161.092 167.606C168.526 161.311 172.856 153.649 172.229 148.664Z" fill="#E0A326"/>
</g>
<g style="mix-blend-mode:multiply" opacity="0.5">
<path d="M84.6101 154.988C83.9834 142.939 95.1494 132.542 109.506 131.83C123.862 131.117 135.997 140.375 136.623 152.339C137.25 164.302 126.084 174.785 111.728 175.497C97.3713 176.209 85.2368 167.065 84.6101 154.988Z" fill="#E0A326"/>
</g>
<g style="mix-blend-mode:multiply" opacity="0.5">
<path d="M109.506 131.83C96.5456 132.485 86.2057 141.002 84.7529 151.513C87.2881 161.796 98.4257 169.173 111.358 168.604C124.29 168.034 134.658 159.432 136.111 148.921C133.576 138.552 122.438 131.146 109.506 131.83Z" fill="#E0A326"/>
</g>
<g style="mix-blend-mode:multiply" opacity="0.5">
<path d="M110.645 73.0675C113.693 80.2172 109.278 88.962 100.789 92.6081C92.301 96.2541 82.9011 93.4341 79.8248 86.2844C76.7484 79.1348 81.1636 70.39 89.6805 66.7439C98.1975 63.0979 107.483 65.9178 110.645 73.0675Z" fill="#E0A326"/>
</g>
<g style="mix-blend-mode:multiply" opacity="0.5">
<path d="M100.704 92.6077C108.366 89.332 112.696 81.869 111.243 75.2035C107.398 69.5066 99.0519 67.5696 91.3041 70.8738C83.5562 74.1781 79.2835 81.6126 80.7647 88.278C84.6671 93.918 93.0416 95.8835 100.704 92.6077Z" fill="#E0A326"/>
</g>
<g style="mix-blend-mode:multiply" opacity="0.5">
<path d="M156.049 134.081C146.592 131.688 141.209 120.636 144.057 109.356C146.906 98.0764 156.875 90.8983 166.332 93.291C175.789 95.6837 181.173 106.736 178.324 118.016C175.476 129.296 165.506 136.474 156.049 134.081Z" fill="#E0A326"/>
</g>
<g style="mix-blend-mode:multiply" opacity="0.5">
<path d="M144.057 109.356C141.494 119.525 145.624 129.523 153.372 133.141C161.917 133.625 170.292 126.789 172.856 116.648C175.419 106.508 171.289 96.481 163.513 92.8634C154.967 92.3792 146.621 99.1016 144.057 109.356Z" fill="#E0A326"/>
</g>
<g style="mix-blend-mode:multiply" opacity="0.5">
<path d="M48.5348 131.344C53.0339 131.307 56.6182 123.612 56.5407 114.158C56.4631 104.704 52.753 97.0691 48.2539 97.106C43.7548 97.1429 40.1703 104.837 40.2479 114.292C40.3254 123.746 44.0357 131.38 48.5348 131.344Z" fill="#E0A326"/>
</g>
<g style="mix-blend-mode:multiply" opacity="0.5">
<path d="M51.8816 129.694C54.7301 126.988 56.6101 121.006 56.5532 114.056C56.5532 106.394 54.018 99.8136 50.6853 97.7627C47.8368 100.469 45.9853 106.451 46.0423 113.401C46.0993 121.092 48.5489 127.586 51.8816 129.694Z" fill="#E0A326"/>
</g>
<g style="mix-blend-mode:multiply" opacity="0.5">
<path d="M66.7785 182.931C68.9718 177.661 79.7392 177.234 90.7913 181.82C101.843 186.406 109.022 194.524 106.8 199.766C104.578 205.007 93.839 205.463 82.7869 200.848C71.7348 196.233 64.5567 188.172 66.7785 182.931Z" fill="#E0A326"/>
</g>
<g style="mix-blend-mode:multiply" opacity="0.5">
<path d="M106.686 195.094C104.92 190.48 98.9098 185.239 90.7917 181.821C81.7905 178.061 73.0172 177.662 68.8584 180.482C70.596 185.096 76.6348 190.338 84.7244 193.756C93.7256 197.544 102.527 197.914 106.686 195.094Z" fill="#E0A326"/>
</g>
<g style="mix-blend-mode:multiply" opacity="0.5">
<path d="M122.581 35.2386C122.951 38.4289 117.795 41.6761 111.044 42.4737C104.294 43.2713 98.5396 41.3343 98.1693 38.1155C97.799 34.8968 102.926 31.678 109.563 30.8804C116.2 30.0829 122.182 32.0198 122.581 35.2386Z" fill="#E0A326"/>
</g>
<g style="mix-blend-mode:multiply" opacity="0.5">
<path d="M99.5361 40.3941C102.953 42.4543 107.006 43.1939 110.93 42.4735C116.428 41.8184 120.843 39.625 122.125 37.0045C118.666 34.917 114.559 34.1767 110.588 34.9251C105.233 35.5802 100.789 37.8305 99.5361 40.3941Z" fill="#E0A326"/>
</g>
<g style="mix-blend-mode:multiply" opacity="0.5">
<path d="M177.783 175.239C175.305 173.188 176.758 167.263 181.059 162.022C185.36 156.781 190.858 154.16 193.336 156.325C195.814 158.49 194.39 164.301 190.089 169.542C185.788 174.783 180.29 177.262 177.783 175.239Z" fill="#E0A326"/>
</g>
<g style="mix-blend-mode:multiply" opacity="0.5">
<path d="M190.801 155.527C186.856 156.398 183.38 158.715 181.059 162.022C177.556 166.295 175.932 170.995 176.815 173.701C180.755 172.818 184.226 170.503 186.557 167.206C190.032 162.933 191.656 158.233 190.801 155.527Z" fill="#E0A326"/>
</g>
<g style="mix-blend-mode:multiply" opacity="0.5">
<path d="M47.01 160.541C49.5167 158.49 55.0143 161.054 59.344 166.238C63.6737 171.422 65.0409 177.376 62.6767 179.427C60.3124 181.478 54.6441 178.914 50.3429 173.73C46.0417 168.545 44.5319 162.592 47.01 160.541Z" fill="#E0A326"/>
</g>
<g style="mix-blend-mode:multiply" opacity="0.5">
<path d="M63.8158 177.119C63.7101 173.084 62.1175 169.229 59.3437 166.295C55.8401 162.022 51.5389 159.544 48.6904 159.858C48.8092 163.896 50.4114 167.75 53.1911 170.682C56.6947 174.926 60.9958 177.433 63.8158 177.119Z" fill="#E0A326"/>
</g>
<g style="mix-blend-mode:multiply" opacity="0.5">
<path d="M141.209 198.142C139.927 195.294 143.915 190.594 150.154 187.86C156.392 185.125 162.459 185.353 163.741 188.315C165.023 191.278 161.035 195.864 154.797 198.57C148.558 201.276 142.491 201.105 141.209 198.142Z" fill="#E0A326"/>
</g>
<g style="mix-blend-mode:multiply" opacity="0.5">
<path d="M161.918 186.55C158.015 185.533 153.874 186 150.296 187.86C145.226 190.082 141.751 193.557 141.152 196.405C145.064 197.424 149.215 196.957 152.803 195.095C157.73 192.788 161.319 189.341 161.918 186.55Z" fill="#E0A326"/>
</g>
<g style="mix-blend-mode:multiply" opacity="0.5">
<path d="M182.626 59.6209C181.287 61.7003 176.644 61.1306 172.258 58.3391C167.871 55.5476 165.364 51.5882 166.561 49.4803C167.757 47.3725 172.514 47.9706 176.929 50.7621C181.344 53.5537 183.937 57.513 182.626 59.6209Z" fill="#E0A326"/>
</g>
<g style="mix-blend-mode:multiply" opacity="0.5">
<path d="M166.418 51.5037C167.414 54.4039 169.442 56.8369 172.115 58.34C173.409 59.3605 174.912 60.0835 176.517 60.4577C178.122 60.8318 179.789 60.8479 181.401 60.5049C180.414 57.5993 178.384 55.1633 175.704 53.6685C174.41 52.6481 172.907 51.9251 171.302 51.5509C169.697 51.1768 168.03 51.1606 166.418 51.5037Z" fill="#E0A326"/>
</g>
<g style="mix-blend-mode:multiply" opacity="0.5">
<path d="M200.657 126.616C198.179 126.616 196.384 122.172 196.641 116.988C196.897 111.804 199.119 107.674 201.597 107.787C204.075 107.901 205.87 112.231 205.613 117.444C205.357 122.656 203.107 126.758 200.657 126.616Z" fill="#E0A326"/>
</g>
<g style="mix-blend-mode:multiply" opacity="0.5">
<path d="M199.717 108.528C197.666 110.896 196.57 113.942 196.64 117.074C196.404 118.703 196.524 120.364 196.991 121.942C197.458 123.521 198.262 124.979 199.346 126.217C201.404 123.854 202.502 120.805 202.423 117.672C202.659 116.043 202.54 114.382 202.072 112.803C201.605 111.225 200.802 109.766 199.717 108.528Z" fill="#E0A326"/>
</g>
<g style="mix-blend-mode:multiply" opacity="0.5">
<path d="M67.348 166.552C68.3165 165.185 71.4499 165.726 74.3553 167.777C77.2608 169.828 78.8274 172.619 77.8589 173.987C76.8904 175.354 73.7287 174.813 70.8233 172.762C67.9178 170.711 66.3796 167.948 67.348 166.552Z" fill="#E0A326"/>
</g>
<g style="mix-blend-mode:multiply" opacity="0.5">
<path d="M78.1154 172.62C77.5041 170.597 76.1645 168.871 74.3554 167.778C73.5062 167.047 72.5092 166.508 71.4325 166.199C70.3558 165.889 69.2249 165.815 68.1172 165.983C68.7012 168.013 70.0352 169.744 71.8487 170.826C72.6949 171.571 73.6961 172.118 74.7799 172.428C75.8637 172.739 77.0031 172.804 78.1154 172.62V172.62Z" fill="#E0A326"/>
</g>
<g style="mix-blend-mode:multiply" opacity="0.5">
<path d="M81.5907 94.8282C82.9222 95.0473 84.1536 95.6721 85.1166 96.6173C86.0795 97.5626 86.727 98.7821 86.9708 100.109C87.2145 101.436 87.0426 102.806 86.4784 104.032C85.9142 105.258 84.9851 106.28 83.8184 106.957C82.6517 107.635 81.3041 107.936 79.9598 107.82C78.6155 107.703 77.3402 107.174 76.3079 106.305C75.2756 105.436 74.5368 104.269 74.1924 102.965C73.8481 101.66 73.9152 100.281 74.3842 99.0154C74.8048 97.5172 75.7926 96.2418 77.1381 95.4601C78.4836 94.6783 80.0808 94.4516 81.5907 94.8282V94.8282Z" fill="#E0A326"/>
</g>
<g style="mix-blend-mode:multiply" opacity="0.5">
<path d="M79.3123 107.105C80.4564 106.879 81.5202 106.354 82.3957 105.583C83.2712 104.813 83.9272 103.825 84.2971 102.719C84.7985 101.539 84.9363 100.236 84.6927 98.9776C84.4491 97.719 83.8353 96.5618 82.9299 95.6543C81.7849 95.8886 80.7215 96.4199 79.8466 97.1948C78.9717 97.9697 78.316 98.9611 77.9451 100.069C77.4461 101.245 77.3096 102.543 77.5532 103.796C77.7968 105.05 78.4094 106.202 79.3123 107.105V107.105Z" fill="#E0A326"/>
</g>
<g style="mix-blend-mode:multiply" opacity="0.5">
<path d="M108.081 50.5059C108.509 52.158 106.088 54.2089 102.669 55.1489C99.2513 56.0889 96.0894 55.4907 95.6622 53.8386C95.2349 52.1865 97.6562 50.164 101.074 49.2241C104.493 48.2841 107.797 48.8822 108.081 50.5059Z" fill="#E0A326"/>
</g>
<g style="mix-blend-mode:multiply" opacity="0.5">
<path d="M96.5449 54.9215C98.4879 55.7521 100.67 55.8333 102.669 55.1494C103.774 54.9591 104.824 54.5322 105.749 53.8979C106.673 53.2637 107.449 52.4371 108.024 51.4749C106.081 50.6443 103.899 50.5631 101.9 51.247C100.793 51.4299 99.7393 51.8539 98.8139 52.4888C97.8886 53.1238 97.114 53.9543 96.5449 54.9215V54.9215Z" fill="#E0A326"/>
</g>
<g style="mix-blend-mode:multiply" opacity="0.5">
<path d="M172.343 89.3585C171.43 89.9813 170.346 90.3034 169.242 90.2797C168.138 90.2559 167.068 89.8876 166.184 89.2263C165.299 88.5649 164.643 87.6435 164.308 86.591C163.972 85.5385 163.974 84.4075 164.313 83.3562C164.653 82.3049 165.312 81.3859 166.199 80.7277C167.086 80.0696 168.157 79.7051 169.261 79.6854C170.366 79.6657 171.449 79.9917 172.359 80.6178C173.269 81.2439 173.96 82.1388 174.337 83.1773C174.871 84.265 174.962 85.5178 174.59 86.6711C174.218 87.8244 173.412 88.7881 172.343 89.3585Z" fill="#E0A326"/>
</g>
<g style="mix-blend-mode:multiply" opacity="0.5">
<path d="M167.614 80.7275C167.078 81.4678 166.741 82.3335 166.637 83.2414C166.532 84.1493 166.662 85.0689 167.016 85.9117C167.296 86.8717 167.854 87.7273 168.619 88.371C169.385 89.0147 170.323 89.4177 171.317 89.5293C171.853 88.7891 172.19 87.9234 172.295 87.0155C172.399 86.1075 172.269 85.188 171.915 84.3451C171.622 83.3924 171.06 82.5445 170.297 81.9029C169.535 81.2613 168.603 80.8532 167.614 80.7275V80.7275Z" fill="#E0A326"/>
</g>
<g style="mix-blend-mode:multiply" opacity="0.5">
<path d="M39.4332 82.8364C42.5665 83.6624 43.6775 89.6443 41.9684 96.2242C40.2593 102.804 36.2714 107.447 33.1665 106.621C30.0617 105.795 28.9223 99.8133 30.6599 93.2333C32.3974 86.6533 36.2429 82.0103 39.4332 82.8364Z" fill="#E0A326"/>
</g>
<g style="mix-blend-mode:multiply" opacity="0.5">
<path d="M35.7018 106.164C38.9185 103.727 41.1201 100.186 41.883 96.2231C43.2787 90.8679 42.7946 85.9116 40.8861 83.8037C37.6756 86.259 35.4765 89.8059 34.705 93.7734C33.3092 99.1 33.7364 104.056 35.7018 106.164Z" fill="#E0A326"/>
</g>
<g style="mix-blend-mode:multiply" opacity="0.5">
<path d="M187.241 137.726C188.551 138.296 188.779 140.574 187.782 142.967C186.785 145.36 184.934 146.727 183.538 146.157C182.142 145.588 181.971 143.309 182.997 140.888C184.022 138.467 185.902 137.156 187.241 137.726Z" fill="#E0A326"/>
</g>
<g style="mix-blend-mode:multiply" opacity="0.5">
<path d="M186.443 129.266C187.24 129.608 187.411 131.032 186.785 132.456C186.158 133.881 185.019 134.735 184.221 134.365C183.424 133.995 183.253 132.599 183.879 131.175C184.506 129.75 185.645 128.896 186.443 129.266Z" fill="#E0A326"/>
</g>
<g style="mix-blend-mode:multiply" opacity="0.5">
<path d="M97.9127 180.025C97.2006 181.478 94.5799 181.592 92.0447 180.338C89.5096 179.085 88.0285 176.892 88.7691 175.439C89.5097 173.986 92.1018 173.872 94.6369 175.154C97.1721 176.436 98.6534 178.601 97.9127 180.025Z" fill="#E0A326"/>
</g>
<g style="mix-blend-mode:multiply" opacity="0.5">
<path d="M105.261 181.707C104.834 182.562 103.239 182.647 101.729 181.878C100.22 181.109 99.3081 179.799 99.7354 179.03C100.163 178.261 101.758 178.09 103.296 178.859C104.834 179.628 105.717 180.853 105.261 181.707Z" fill="#E0A326"/>
</g>
<g style="mix-blend-mode:multiply" opacity="0.5">
<path d="M63.7024 166.752C63.1327 167.293 61.8793 166.923 60.8539 165.897C59.8284 164.872 59.5721 163.647 60.1418 163.049C60.7115 162.451 61.9648 162.878 62.9902 163.875C64.0157 164.872 64.2721 166.21 63.7024 166.752Z" fill="#E0A326"/>
</g>
<g style="mix-blend-mode:multiply" opacity="0.5">
<path d="M167.814 60.1897C166.988 60.9873 165.193 60.4461 163.797 58.9649C162.402 57.4837 161.946 55.6607 162.772 54.8631C163.598 54.0655 165.393 54.6352 166.788 56.1164C168.184 57.5977 168.668 59.4207 167.814 60.1897Z" fill="#E0A326"/>
</g>
<g style="mix-blend-mode:multiply" opacity="0.5">
<path d="M170.948 66.6298C170.406 67.1425 169.21 66.7722 168.299 65.8037C167.387 64.8352 167.102 63.6389 167.644 63.1261C168.185 62.6134 169.381 62.9837 170.293 63.9237C171.204 64.8637 171.489 66.0886 170.948 66.6298Z" fill="#E0A326"/>
</g>
<g style="mix-blend-mode:multiply" opacity="0.5">
<path d="M128.904 198.625C128.904 200.05 126.768 201.161 124.233 201.075C121.697 200.99 119.675 199.765 119.703 198.227C119.732 196.688 121.84 195.691 124.375 195.748C126.91 195.805 128.932 197.173 128.904 198.625Z" fill="#E0A326"/>
</g>
<g style="mix-blend-mode:multiply" opacity="0.5">
<path d="M136.481 194.753C136.481 195.636 135.171 196.291 133.633 196.263C132.094 196.234 130.784 195.465 130.784 194.582C130.784 193.699 132.066 193.044 133.633 193.101C135.199 193.158 136.51 193.899 136.481 194.753Z" fill="#E0A326"/>
</g>
<g style="mix-blend-mode:multiply" opacity="0.5">
<path d="M117.453 194.326C117.453 195.209 116.171 195.864 114.604 195.807C113.038 195.75 111.756 195.01 111.756 194.155C111.756 193.301 113.066 192.617 114.604 192.645C116.143 192.674 117.481 193.443 117.453 194.326Z" fill="#E0A326"/>
</g>
<g style="mix-blend-mode:screen" opacity="0.5">
<path d="M46.8968 82.0083C45.7004 81.2107 45.8714 78.8465 47.2671 76.7386C48.6629 74.6307 50.7708 73.5483 51.9672 74.3459C53.1635 75.1435 52.9926 77.4792 51.5968 79.6156C50.2011 81.7519 47.9792 82.9198 46.8968 82.0083ZM49.0617 89.0156C49.9162 87.7337 50.0302 86.3095 49.2896 85.8252C48.549 85.341 47.2672 85.9962 46.4411 87.278C45.6151 88.5598 45.5011 90.1265 46.2417 90.4683C46.9823 90.8101 48.2071 90.5537 49.0617 89.1295V89.0156ZM59.4301 73.0641C60.2847 71.7823 60.37 70.2156 59.6579 69.8738C58.9458 69.532 57.6355 70.0447 56.8094 71.3265C55.9834 72.6083 55.8696 74.175 56.5817 74.5168C57.2938 74.8586 58.5756 74.4598 59.3731 73.178L59.4301 73.0641ZM119.191 48.5102C118.707 47.143 120.245 45.3484 122.609 44.4654C124.974 43.5824 127.338 43.9811 127.822 45.3199C128.306 46.6587 126.797 48.4817 124.404 49.3647C122.011 50.2478 119.561 49.849 119.191 48.5102ZM134.573 48.7381C136.026 48.1969 136.966 47.086 136.652 46.2884C136.339 45.4909 134.943 45.206 133.491 45.7472C132.038 46.2884 131.126 47.3708 131.411 48.1969C131.696 49.023 133.006 49.2509 134.43 48.7381H134.573Z" fill="#E0A326"/>
</g>
<defs>
<radialGradient id="paint0_radial_741_150" cx="0" cy="0" r="1" gradientUnits="userSpaceOnUse" gradientTransform="translate(58.404 112.973) scale(16.6921 16.6921)">
<stop offset="0.06" stop-color="#E47E99"/>
<stop offset="0.53" stop-color="#E43D99"/>
<stop offset="0.99" stop-color="#B30058"/>
</radialGradient>
<radialGradient id="paint1_radial_741_150" cx="0" cy="0" r="1" gradientUnits="userSpaceOnUse" gradientTransform="translate(117.485 117.599) scale(103.2 103.2)">
<stop stop-color="#E0A326"/>
<stop offset="0.38" stop-color="#E0A326" stop-opacity="0.99"/>
<stop offset="0.52" stop-color="#E0A326" stop-opacity="0.96"/>
<stop offset="0.62" stop-color="#E0A326" stop-opacity="0.91"/>
<stop offset="0.7" stop-color="#E0A326" stop-opacity="0.83"/>
<stop offset="0.77" stop-color="#E0A326" stop-opacity="0.73"/>
<stop offset="0.83" stop-color="#E0A326" stop-opacity="0.61"/>
<stop offset="0.88" stop-color="#E0A326" stop-opacity="0.47"/>
<stop offset="0.93" stop-color="#E0A326" stop-opacity="0.3"/>
<stop offset="0.98" stop-color="#E0A326" stop-opacity="0.12"/>
<stop offset="1" stop-color="#E0A326" stop-opacity="0"/>
</radialGradient>
</defs>
</svg>
