<svg width="15" height="28" viewBox="0 0 15 28" fill="none" xmlns="http://www.w3.org/2000/svg">
<path d="M5.85069 13.964H0.780564C0.349518 13.964 0 13.6148 0 13.1841C0 12.7535 0.349378 12.4043 0.780564 12.4043H5.85069C6.28173 12.4043 6.63125 12.7535 6.63125 13.1841C6.63111 13.6148 6.28173 13.964 5.85069 13.964Z" fill="white"/>
<path d="M5.84912 24.1727H3.8333C3.40225 24.1727 3.05273 23.8235 3.05273 23.3929V2.96784C3.05273 2.53718 3.40211 2.18799 3.8333 2.18799H5.84912C6.28017 2.18799 6.62969 2.53718 6.62969 2.96784C6.62969 3.39849 6.28031 3.74768 5.84912 3.74768H4.61386V22.6132H5.84912C6.28017 22.6132 6.62969 22.9624 6.62969 23.393C6.62955 23.8235 6.28017 24.1727 5.84912 24.1727Z" fill="white"/>
<path d="M10.7992 5.9401C12.441 5.9401 13.7719 4.61036 13.7719 2.97005C13.7719 1.32974 12.441 0 10.7992 0C9.15736 0 7.82642 1.32974 7.82642 2.97005C7.82642 4.61036 9.15736 5.9401 10.7992 5.9401Z" fill="white"/>
<path d="M11.4674 16.0564C13.0652 15.6795 14.0546 14.0798 13.6773 12.4834C13.3 10.8871 11.6989 9.89855 10.1011 10.2755C8.50329 10.6524 7.51386 12.2521 7.89115 13.8485C8.26844 15.4448 9.86957 16.4333 11.4674 16.0564Z" fill="white"/>
<path d="M12.8979 25.5C14.0589 24.3402 14.0589 22.4597 12.8979 21.2998C11.737 20.1399 9.85477 20.1399 8.69384 21.2998C7.53291 22.4597 7.53292 24.3402 8.69384 25.5C9.85477 26.6599 11.737 26.6599 12.8979 25.5Z" fill="white"/>
</svg>
