<svg width="28" height="28" viewBox="0 0 28 28" fill="none" xmlns="http://www.w3.org/2000/svg">
<path d="M9.91675 14.5835L18.0834 14.5835" stroke="white" stroke-linecap="round"/>
<path d="M9.91675 18.0835L14.5834 18.0835" stroke="white" stroke-linecap="round"/>
<path d="M6.41675 6.4835C6.41675 5.64342 6.41675 5.22338 6.58024 4.90251C6.72405 4.62027 6.95352 4.3908 7.23576 4.24699C7.55663 4.0835 7.97667 4.0835 8.81675 4.0835H14.756C15.1229 4.0835 15.3063 4.0835 15.4789 4.12494C15.632 4.16169 15.7783 4.22229 15.9125 4.30454C16.0639 4.3973 16.1936 4.52701 16.453 4.78644L20.8805 9.21389C21.1399 9.47331 21.2696 9.60303 21.3624 9.7544C21.4446 9.88861 21.5052 10.0349 21.542 10.188C21.5834 10.3606 21.5834 10.5441 21.5834 10.9109V21.5168C21.5834 22.3569 21.5834 22.7769 21.4199 23.0978C21.2761 23.3801 21.0466 23.6095 20.7644 23.7533C20.4435 23.9168 20.0235 23.9168 19.1834 23.9168H8.81675C7.97667 23.9168 7.55663 23.9168 7.23576 23.7533C6.95352 23.6095 6.72405 23.3801 6.58024 23.0978C6.41675 22.7769 6.41675 22.3569 6.41675 21.5168V6.4835Z" stroke="white"/>
<path d="M14.5833 4.0835V8.6835C14.5833 9.52357 14.5833 9.94361 14.7467 10.2645C14.8906 10.5467 15.12 10.7762 15.4023 10.92C15.7231 11.0835 16.1432 11.0835 16.9833 11.0835H21.5833" stroke="white"/>
</svg>
