<svg width="25" height="16" viewBox="0 0 25 16" fill="none" xmlns="http://www.w3.org/2000/svg">
<path d="M10.9316 10.1827H10.4316V10.6827V12.7547C10.4316 13.7047 9.85695 14.5658 8.96739 14.9375C8.66512 15.0636 8.34723 15.125 8.03255 15.125C7.41794 15.125 6.81369 14.8915 6.35721 14.452C6.3572 14.4519 6.35719 14.4519 6.35718 14.4519L1.22472 9.50919L1.2246 9.50908C0.760541 9.06246 0.5 8.4505 0.5 7.81185C0.5 7.17387 0.760958 6.56126 1.22477 6.11447L6.35715 1.17334L6.35717 1.17333C7.04868 0.507522 8.07644 0.315148 8.96721 0.687654C9.85706 1.06 10.4316 1.92073 10.4316 2.87063V4.94201V5.44201H10.9316H22.1004C23.4308 5.44201 24.5 6.50811 24.5 7.81236C24.5 9.11661 23.4307 10.1827 22.1004 10.1827H10.9316Z" stroke="white"/>
</svg>
