<svg width="37" height="25" viewBox="0 0 37 25" fill="none" xmlns="http://www.w3.org/2000/svg">
<path d="M20.9336 14.46C20.684 14.46 20.4552 14.3705 20.2888 14.1914L17.2105 11.0577C17.0025 10.8562 17.0025 10.4981 17.1897 10.2742C17.3769 10.0504 17.7096 10.0504 17.9176 10.2519L20.996 13.3856L22.6391 10.8786C22.8055 10.6548 23.0551 10.4981 23.3255 10.4757C23.5751 10.4309 23.8663 10.5428 24.0535 10.7443L26.1334 12.8036L28.2342 9.15506C28.4006 8.88646 28.7126 8.81931 28.9622 8.99838C29.2118 9.17745 29.2742 9.5132 29.1078 9.7818L26.8822 13.4303C26.7366 13.6766 26.487 13.8556 26.1958 13.878C25.9255 13.9228 25.6343 13.8109 25.4263 13.6094L23.3463 11.5501L21.7031 14.0571C21.5368 14.2809 21.2872 14.4376 21.0168 14.46C20.9752 14.46 20.9544 14.46 20.9336 14.46Z" fill="white"/>
<path d="M36.4919 24.04C36.3256 24.04 36.1384 23.9505 36.0552 23.7715L23.4506 1.16396L10.8461 23.7715C10.7005 24.0401 10.3678 24.1296 10.139 23.9729C9.88937 23.8162 9.80617 23.4805 9.95177 23.2119L22.6187 0.470057C22.9723 -0.156686 23.9082 -0.156686 24.2618 0.470057L36.9287 23.1895C37.0743 23.4581 36.9911 23.7938 36.7415 23.9505C36.6791 24.0177 36.5959 24.04 36.4919 24.04Z" fill="white"/>
<path d="M0.529231 24.0392C0.446032 24.0392 0.342037 24.0168 0.258839 23.9497C0.00924447 23.793 -0.0739539 23.4572 0.0716427 23.1886L9.01543 7.16195C9.36902 6.53521 10.305 6.53521 10.6586 7.16195L15.2137 15.332C15.3593 15.6006 15.2761 15.9363 15.0265 16.093C14.7769 16.2497 14.4649 16.1602 14.3193 15.8916L9.82661 7.83345L0.966018 23.7258C0.88282 23.9497 0.716426 24.0392 0.529231 24.0392Z" fill="white"/>
</svg>
